{"accessors":[{"bufferView":0,"componentType":5126,"count":20,"max":[0.5,0.100000001490116,0.5],"min":[0.400000005960464,0.0,-0.5],"normalized":false,"type":"VEC3"},{"bufferView":1,"componentType":5126,"count":20,"max":[1.0,0.0000305817193293478,1.0,1.0],"min":[-1.0,-0.00000000000133398608999358,-1.0,1.0],"normalized":false,"type":"VEC4"},{"bufferView":2,"componentType":5126,"count":20,"max":[1.0,0.0000152586571857682,1.0],"min":[-1.0,-1.0,-1.0],"normalized":false,"type":"VEC3"},{"bufferView":3,"componentType":5126,"count":20,"max":[19.6850395202637,20.6850395202637],"min":[-19.6850395202637,-18.6851863861084],"normalized":false,"type":"VEC2"},{"bufferView":4,"componentType":5123,"count":30,"max":[19.0],"min":[0.0],"normalized":false,"type":"SCALAR"},{"bufferView":5,"componentType":5126,"count":36,"max":[0.5,0.800000011920929,0.5],"min":[0.400000005960464,0.100000001490116,-0.5],"normalized":false,"type":"VEC3"},{"bufferView":6,"componentType":5126,"count":36,"max":[1.0,0.0000152590218931437,1.0,1.0],"min":[-1.0,-0.00000000000133398608999358,-1.0,1.0],"normalized":false,"type":"VEC4"},{"bufferView":7,"componentType":5126,"count":36,"max":[1.0,1.0,1.0],"min":[-1.0,-0.0000305180437862873,-1.0],"normalized":false,"type":"VEC3"},{"bufferView":8,"componentType":5126,"count":36,"max":[19.6850395202637,20.6848335266113],"min":[-19.6850395202637,-30.4960632324219],"normalized":false,"type":"VEC2"},{"bufferView":9,"componentType":5123,"count":54,"max":[35.0],"min":[0.0],"normalized":false,"type":"SCALAR"},{"bufferView":10,"componentType":5126,"count":16,"max":[0.5,0.400000005960464,0.5],"min":[0.400000005960464,0.200000002980232,-0.5],"normalized":false,"type":"VEC3"},{"bufferView":11,"componentType":5126,"count":16,"max":[1.0,0.0000152590218931437,1.0,1.0],"min":[-1.0,-0.00000000000133398608999358,-1.0,1.0],"normalized":false,"type":"VEC4"},{"bufferView":12,"componentType":5126,"count":16,"max":[1.0,0.0000152586571857682,1.0],"min":[-1.0,-0.0000305180437862873,-1.0],"normalized":false,"type":"VEC3"},{"bufferView":13,"componentType":5126,"count":16,"max":[19.6850395202637,-6.87431287765503],"min":[-19.6850395202637,-14.7480316162109],"normalized":false,"type":"VEC2"},{"bufferView":14,"componentType":5123,"count":24,"max":[15.0],"min":[0.0],"normalized":false,"type":"SCALAR"}],"asset":{"generator":"Godot Engine v4.5.stable.official@876b290332ec6f2e6d173d08162a02aa7e6ca46d","version":"2.0"},"bufferViews":[{"buffer":0,"byteLength":240,"byteStride":12,"target":34962},{"buffer":0,"byteLength":320,"byteOffset":240,"byteStride":16,"target":34962},{"buffer":0,"byteLength":240,"byteOffset":560,"byteStride":12,"target":34962},{"buffer":0,"byteLength":160,"byteOffset":800,"byteStride":8,"target":34962},{"buffer":0,"byteLength":60,"byteOffset":960,"target":34963},{"buffer":0,"byteLength":432,"byteOffset":1020,"byteStride":12,"target":34962},{"buffer":0,"byteLength":576,"byteOffset":1452,"byteStride":16,"target":34962},{"buffer":0,"byteLength":432,"byteOffset":2028,"byteStride":12,"target":34962},{"buffer":0,"byteLength":288,"byteOffset":2460,"byteStride":8,"target":34962},{"buffer":0,"byteLength":108,"byteOffset":2748,"target":34963},{"buffer":0,"byteLength":192,"byteOffset":2856,"byteStride":12,"target":34962},{"buffer":0,"byteLength":256,"byteOffset":3048,"byteStride":16,"target":34962},{"buffer":0,"byteLength":192,"byteOffset":3304,"byteStride":12,"target":34962},{"buffer":0,"byteLength":128,"byteOffset":3496,"byteStride":8,"target":34962},{"buffer":0,"byteLength":48,"byteOffset":3624,"target":34963}],"buffers":[{"byteLength":3672,"uri":"corridor_wall_big0.bin"}],"extensionsUsed":["GODOT_single_root"],"materials":[{"extensions":{},"name":"metalDark","pbrMetallicRoughness":{"baseColorFactor":[0.675062358379364,0.710021913051605,0.77358490228653,1.0],"metallicFactor":1.0,"roughnessFactor":1.0}},{"extensions":{},"name":"metal","pbrMetallicRoughness":{"baseColorFactor":[0.843137264251709,0.87058824300766,0.909803926944733,1.0],"metallicFactor":1.0,"roughnessFactor":1.0}},{"extensions":{},"name":"metalRed","pbrMetallicRoughness":{"baseColorFactor":[1.0,0.628524243831635,0.202830165624619,1.0],"metallicFactor":1.0,"roughnessFactor":1.0}}],"meshes":[{"primitives":[{"attributes":{"NORMAL":2,"POSITION":0,"TANGENT":1,"TEXCOORD_0":3},"indices":4,"material":0,"mode":4},{"attributes":{"NORMAL":7,"POSITION":5,"TANGENT":6,"TEXCOORD_0":8},"indices":9,"material":1,"mode":4},{"attributes":{"NORMAL":12,"POSITION":10,"TANGENT":11,"TEXCOORD_0":13},"indices":14,"material":2,"mode":4}]}],"nodes":[{"children":[1],"name":"corridor_wall_big"},{"mesh":0,"name":"corridor_wall","scale":[1.0,2.0,1.0],"translation":[2.0,0.0,1.5]}],"scene":0,"scenes":[{"nodes":[0]}]}