<?xml version="1.0" encoding="UTF-8" standalone="no"?>
<!-- Created with Inkscape (http://www.inkscape.org/) -->

<svg
   width="66.764198mm"
   height="179.87051mm"
   viewBox="0 0 66.764198 179.87051"
   version="1.1"
   id="svg1"
   xml:space="preserve"
   xmlns="http://www.w3.org/2000/svg"
   xmlns:svg="http://www.w3.org/2000/svg"><defs
     id="defs1" /><g
     id="layer1"
     transform="translate(-4.8818221,-318.11411)"><path
       style="fill:#000000"
       d="m 17.814971,497.62333 c -3.21386,-0.70881 -2.830566,-4.65642 -0.484678,-10.13401 0.174779,-0.4081 0.362187,-2.58288 0.426503,-4.82858 0.107499,-3.75348 0.07719,-4.11216 -0.375464,-4.44294 -0.40438,-0.2955 -0.509372,-0.79525 -0.587327,-2.79563 -0.06995,-1.7949 -0.218731,-2.60996 -0.565461,-3.09769 -0.429922,-0.60476 -0.46489,-1.35843 -0.405119,-8.73168 0.03598,-4.43838 0.196777,-9.08182 0.357329,-10.31875 0.160551,-1.23693 0.281111,-4.03489 0.267911,-6.21771 -0.0132,-2.18281 0.107315,-4.50453 0.26781,-5.15937 0.418772,-1.70865 0.368777,-4.52339 -0.09113,-5.13093 -0.306683,-0.40513 -0.348057,-1.21834 -0.216708,-4.25948 0.116679,-2.7015 0.07682,-3.81161 -0.141702,-3.94666 -0.61009,-0.37706 -0.05681,-4.9511 0.866064,-7.15984 0.572138,-1.36933 0.546312,-2.25726 -0.06565,-2.25726 -0.634172,0 -1.437382,-0.87952 -2.383939,-2.61044 -0.746088,-1.36433 -0.773311,-1.38422 -0.947001,-0.69219 -0.258396,1.02954 0.07193,2.87189 0.939307,5.23891 0.861789,2.35177 0.919135,2.89189 0.365792,3.44523 -0.399508,0.39951 -1.459863,0.30818 -1.459863,-0.12574 0,-0.13132 -0.27995,-0.1685 -0.622112,-0.0826 -0.469765,0.11791 -0.777533,-0.0266 -1.256771,-0.59027 -0.349062,-0.41052 -0.976319,-0.96684 -1.393905,-1.23626 -0.8272081,-0.5337 -2.1490481,-1.94523 -2.8748631,-3.06993 -0.834754,-1.2935 -1.345792,-4.62341 -1.175519,-7.65966 0.1055,-1.88124 0.05612,-2.92833 -0.155969,-3.30729 -0.170689,-0.30499 -0.39132,-2.0428 -0.49029,-3.86181 -0.09897,-1.81901 -0.335005,-3.81159 -0.524524,-4.42795 -0.301884,-0.98181 -0.284779,-1.28696 0.138054,-2.46282 0.291699,-0.81118 0.425678,-1.69312 0.338667,-2.22931 -0.08631,-0.53186 0.06676,-1.55883 0.382199,-2.56427 0.457853,-1.45937 0.487349,-1.87703 0.227185,-3.21698 -0.329341,-1.69623 -0.192123,-2.71649 0.567048,-4.21619 0.418591,-0.8269 0.475837,-1.33727 0.341286,-3.04271 -0.131085,-1.66152 -0.05781,-2.37447 0.387385,-3.76894 0.301979,-0.94588 0.550589,-2.28486 0.552466,-2.97551 0.0019,-0.69064 0.249999,-1.96824 0.551381,-2.83911 0.301383,-0.87087 0.469328,-1.71064 0.373213,-1.86616 -0.09611,-0.15552 0.02397,-1.176 0.266863,-2.26775 0.328681,-1.47736 0.36595,-2.07616 0.145734,-2.34151 -0.223886,-0.26976 -0.06714,-1.0641 0.6441751,-3.26441 0.517033,-1.59934 1.106553,-3.04607 1.310046,-3.21495 0.203493,-0.16889 0.797096,-1.20643 1.319119,-2.30567 l 0.949132,-1.9986 0.0058,-6.78556 c 0.0065,-7.53124 0.07599,-7.9039 1.852562,-9.9273 1.320462,-1.50392 2.683134,-2.0896 5.180988,-2.22678 l 2.144569,-0.11778 -0.0279,-2.10885 c -0.0264,-1.9954 0.011,-2.13996 0.695241,-2.68719 0.542776,-0.43409 0.851924,-1.08186 1.239458,-2.59711 0.975848,-3.81553 2.827469,-6.54784 5.755579,-8.49313 2.558005,-1.69941 4.673842,-2.37164 7.908202,-2.51255 5.50664,-0.2399 10.16835,1.98685 12.95799,6.18963 1.10611,1.66643 2.22672,4.57351 2.23162,5.78925 0.002,0.57196 0.24413,0.9923 0.86547,1.5043 0.85368,0.70345 0.86166,0.73147 0.79929,2.80805 l -0.063,2.09751 1.78279,0.18243 c 2.8078,0.28732 4.74855,1.67872 5.93579,4.25563 0.57935,1.25749 0.61372,1.66969 0.6948,8.33437 l 0.0853,7.01146 0.81249,1.71979 c 0.44687,0.94589 1.02002,2.01745 1.27368,2.38125 0.57618,0.82639 2.10884,5.12986 2.10884,5.92129 0,0.32311 -0.10992,0.70057 -0.24426,0.83882 -0.14968,0.15402 -0.084,0.95926 0.16957,2.07951 0.30207,1.33443 0.33737,1.95058 0.13073,2.28147 -0.21643,0.34656 -0.0979,0.97525 0.50328,2.66976 0.69553,1.96036 0.7687,2.44571 0.63336,4.20082 -0.1173,1.52114 -0.0273,2.47293 0.38548,4.07722 0.29618,1.15106 0.53851,2.67502 0.53851,3.38657 0,0.71156 0.18399,1.64954 0.40887,2.08441 0.30301,0.58595 0.36419,1.18565 0.2363,2.31608 -0.11804,1.04331 -0.0407,2.02266 0.2448,3.09879 0.72257,2.72381 1.00245,5.33577 0.69435,6.47997 -0.15304,0.56835 -0.31286,2.51672 -0.35516,4.3297 -0.0529,2.26793 -0.18751,3.4296 -0.43141,3.72348 -0.26275,0.3166 -0.36333,1.60496 -0.38865,4.97848 -0.03,3.9982 -0.10072,4.69604 -0.58189,5.74196 -0.62593,1.36058 -2.60926,3.70417 -3.13476,3.70417 -0.19368,0 -0.73674,0.48559 -1.2068,1.07908 -0.6245,0.7885 -0.99494,1.0424 -1.37564,0.94284 -0.28654,-0.0749 -0.7458,0.004 -1.02058,0.17576 -0.63067,0.39386 -1.38741,-0.023 -1.50768,-0.83052 -0.0461,-0.30974 0.23864,-1.48821 0.63283,-2.61881 0.74727,-2.14327 1.19737,-5.8921 0.70744,-5.8921 -0.14762,0 -0.57102,0.63914 -0.94089,1.42032 -0.61411,1.29701 -1.56985,2.34918 -2.37882,2.61884 -0.21858,0.0729 -0.0967,0.55055 0.39265,1.53898 0.42174,0.85187 0.88642,2.50171 1.14547,4.067 0.40238,2.43139 0.40281,2.65784 0.006,2.94831 -0.37898,0.27712 -0.40902,0.79908 -0.2519,4.37778 0.16984,3.86866 0.15267,4.08614 -0.35882,4.54353 -0.46436,0.41525 -0.50115,0.61095 -0.27137,1.44318 0.14622,0.52953 0.21363,1.74211 0.14982,2.69461 -0.0638,0.9525 -0.005,2.08901 0.13139,2.52558 0.13608,0.43656 0.28791,2.9964 0.33741,5.68854 0.0495,2.69213 0.27142,6.00541 0.49317,7.36284 0.35542,2.17565 0.35787,2.72421 0.0207,4.63021 -0.47695,2.69616 -0.48183,4.45636 -0.0202,7.29607 0.36904,2.27023 0.26563,3.25313 -0.45856,4.35838 -0.21476,0.32776 -0.42117,1.54957 -0.49301,2.9182 -0.1081,2.05959 -0.20016,2.41639 -0.73533,2.84974 -0.59985,0.48572 -0.60858,0.56352 -0.44871,3.99465 0.0897,1.92461 0.23349,3.82812 0.33271,4.22689 l 1.29823,3.109 c 1.68976,3.40595 2.04665,5.99711 0.90909,7.02658 -0.75969,0.68751 -3.28391,1.16666 -6.17014,1.17122 -6.12659,0.01 -6.56761,-0.81246 -6.61685,-12.33498 -0.0254,-5.93695 -0.0781,-6.70573 -0.49145,-7.16458 -0.35288,-0.39174 -0.46334,-0.9811 -0.46437,-2.47756 -0.001,-1.62246 -0.11459,-2.14737 -0.6532,-3.02187 -0.53421,-0.86733 -0.65334,-1.40851 -0.66011,-2.99863 -0.005,-1.06716 -0.25207,-2.89521 -0.55006,-4.06235 -0.489,-1.9152 -0.50978,-2.31268 -0.21323,-4.07759 0.28999,-1.7258 0.27205,-2.17354 -0.15272,-3.81125 -0.26472,-1.02064 -0.47797,-2.65837 -0.4739,-3.6394 0.004,-0.98104 -0.17237,-2.5576 -0.39209,-3.50349 -0.21972,-0.94588 -0.49026,-2.61276 -0.6012,-3.70417 -0.11094,-1.0914 -0.39064,-2.46062 -0.62156,-3.0427 -0.27765,-0.6999 -0.42378,-1.92633 -0.43146,-3.62117 -0.008,-1.79545 -0.20957,-3.37992 -0.67273,-5.29167 -0.36362,-1.50085 -0.66127,-3.17914 -0.66146,-3.72952 -1.9e-4,-0.55037 -0.19104,-1.44334 -0.42411,-1.98437 -0.23306,-0.54103 -0.45993,-1.78147 -0.50415,-2.75654 -0.11082,-2.44394 -0.92362,-6.03181 -1.49615,-6.60435 -0.94922,-0.94921 -1.55141,-0.10008 -2.09438,2.95324 -0.1682,0.94589 -0.29613,2.47442 -0.28427,3.39674 0.0119,0.92233 -0.1596,2.17248 -0.38101,2.77813 -0.76309,2.08736 -0.89947,2.68271 -1.28096,5.59164 -0.21052,1.60526 -0.519226,3.51378 -0.686006,4.24117 -0.48077,2.09678 -1.09839,5.92019 -1.28215,7.93711 -0.0928,1.01865 -0.27042,2.01054 -0.3947,2.20421 -0.47137,0.73454 -0.90869,3.36623 -0.77485,4.66293 0.10199,0.98819 -0.0538,2.05737 -0.580992,3.98837 -0.639752,2.34311 -0.701312,2.91942 -0.550298,5.15178 0.124415,1.83917 0.06506,2.90925 -0.221214,3.98842 -0.215186,0.81119 -0.36995,2.2414 -0.343918,3.17826 0.03772,1.3577 -0.06596,1.8638 -0.510923,2.49387 -0.412185,0.58366 -0.607905,1.39628 -0.74802,3.10575 -0.142976,1.74438 -0.298076,2.37588 -0.629024,2.56111 -0.389159,0.21781 -0.44483,1.00991 -0.488126,6.94516 -0.07309,10.01913 -0.486806,11.62259 -3.192712,12.37406 -1.312555,0.36451 -5.385227,0.31541 -7.20946,-0.0869 z m 41.671873,-0.45462 c 1.67076,-0.33047 2.20227,-0.7326 2.42229,-1.83268 0.15785,-0.78926 0.12526,-0.85467 -0.32982,-0.66191 -1.49608,0.63371 -3.43442,0.96399 -5.80026,0.98832 -2.84624,0.0293 -4.39191,-0.31488 -5.35419,-1.19211 -0.66841,-0.60933 -0.71138,-0.48214 -0.31694,0.93818 0.31462,1.13287 1.20078,1.71437 3.13553,2.05755 1.35144,0.23971 4.21845,0.10316 6.24339,-0.29735 z m -33.983705,-0.1431 c 1.070578,-0.42836 1.572248,-1.13681 1.572248,-2.22029 0,-0.47948 -0.04643,-0.47558 -0.992187,0.0834 -0.897272,0.5303 -1.346542,0.58639 -4.696354,0.58639 -3.254916,0 -3.856591,-0.0704 -4.960938,-0.58043 l -1.256771,-0.58044 v 0.61727 c 0,1.69754 2.004519,2.4824 6.410792,2.51012 2.048347,0.0129 3.140866,-0.10296 3.92321,-0.41599 z m -0.16143,-2.32142 c 1.179799,-0.49296 1.183219,-0.95255 0.01577,-2.12 -2.164757,-2.16476 -7.292931,-2.05452 -9.367283,0.20136 -0.528435,0.57468 -0.577797,0.75754 -0.296115,1.09695 0.331115,0.39897 2.265835,1.05016 3.840678,1.2927 1.392717,0.21449 4.834446,-0.0647 5.806947,-0.47101 z m 34.867575,-0.0952 c 0.74752,-0.25124 1.4072,-0.60712 1.46597,-0.79084 0.18337,-0.57326 -1.61654,-2.1119 -2.86585,-2.44984 -1.7205,-0.46541 -4.44589,-0.20135 -5.81527,0.56343 -1.40708,0.78583 -2.34306,1.95718 -1.90997,2.39027 1.05908,1.05908 6.33433,1.22499 9.12512,0.28698 z m -9.09803,-1.79494 c 0.19479,-0.42751 0.86803,-0.93898 1.82841,-1.38906 2.0492,-0.96035 5.40834,-1.00717 7.14249,-0.0995 0.61846,0.32369 1.12448,0.53606 1.12448,0.47193 0,-0.0641 -0.41116,-0.92975 -0.9137,-1.9236 -1.16582,-2.30564 -1.39999,-3.40911 -1.62403,-7.65302 l -0.18262,-3.45908 -0.65117,0.12448 c -0.62831,0.12011 -0.64579,0.18126 -0.49793,1.74213 0.0843,0.8897 0.2298,2.82371 0.32338,4.2978 0.15869,2.49972 0.13237,2.71792 -0.39085,3.24114 -0.40705,0.40705 -0.89103,0.561 -1.76365,0.561 -2.23036,0 -2.8406,-1.28704 -3.19274,-6.73363 -0.10852,-1.67861 -0.30217,-2.87449 -0.47376,-2.92573 -0.15962,-0.0477 -0.76769,-0.14083 -1.35125,-0.20705 l -1.06103,-0.12038 0.0507,5.15094 c 0.0449,4.5643 0.10549,5.21163 0.53186,5.6837 0.3775,0.41797 0.4671,0.89706 0.41588,2.2237 -0.0688,1.78265 0.17265,2.13993 0.68553,1.01427 z m -23.874525,-3.43157 c 0.3099,-0.47297 0.422475,-1.73804 0.503558,-5.65878 l 0.10443,-5.04964 -0.715394,0.004 c -1.73804,0.009 -1.840562,0.13312 -2.034851,2.468 -0.466199,5.60256 -0.832855,6.82855 -2.197356,7.34734 -0.876328,0.33318 -2.272786,0.0964 -2.852962,-0.48381 -0.383374,-0.38338 -0.411527,-0.94978 -0.242785,-4.8844 l 0.190876,-4.45074 h -0.791883 -0.791883 l -0.130862,4.0349 c -0.104086,3.2093 -0.245726,4.35382 -0.692228,5.59359 -0.308751,0.85729 -0.674172,1.69463 -0.812047,1.86076 -0.137874,0.16613 -0.374116,0.62671 -0.52498,1.02351 l -0.274298,0.72146 1.118891,-0.57553 c 0.75489,-0.38829 1.775352,-0.61475 3.13677,-0.69609 2.522218,-0.15069 4.408125,0.41359 5.608522,1.67814 l 0.840265,0.88517 0.07954,-1.60417 c 0.04375,-0.88229 0.259151,-1.87829 0.478673,-2.21332 z m 22.853355,1.71142 c 0.002,-0.37237 -0.17076,-0.90815 -0.38441,-1.19062 -0.35819,-0.47357 -0.38912,-0.40878 -0.39688,0.83137 -0.005,0.73973 0.0727,1.42613 0.17195,1.52533 0.26452,0.26452 0.60467,-0.38644 0.60934,-1.16608 z M 27.9696,490.74159 c 0.04987,-1.46372 -0.487551,-1.24518 -0.579357,0.2356 -0.06333,1.0214 -0.01028,1.25177 0.232754,1.01078 0.173126,-0.17167 0.329098,-0.73254 0.346603,-1.24638 z m -4.598379,-3.0717 c 0.291041,-0.29104 0.529166,-0.63875 0.529166,-0.77269 0,-0.29558 -3.281058,-0.67943 -3.683193,-0.43089 -0.804277,0.49707 0.407206,1.73275 1.698818,1.73275 0.573264,0 1.127629,-0.20159 1.455209,-0.52917 z m 33.549163,0.21167 c 0.17462,-0.17462 0.3175,-0.53181 0.3175,-0.79375 0,-0.41325 -0.24499,-0.47625 -1.85208,-0.47625 -1.43757,0 -1.85209,0.0855 -1.85209,0.38187 0,0.96339 2.62344,1.65136 3.38667,0.88813 z m -1.05216,-1.79555 c 1.19901,-0.003 1.39478,-0.0725 1.31649,-0.46664 -0.0793,-0.39927 -0.34608,-0.4499 -1.93763,-0.36777 -2.11374,0.10909 -2.27761,0.16696 -2.0622,0.72829 0.10248,0.26706 0.3518,0.35749 0.71605,0.25973 0.30735,-0.0825 1.19263,-0.15163 1.96729,-0.15361 z M 24.11549,485.61937 c -0.07209,-0.37807 -0.423215,-0.47755 -1.913945,-0.54222 -1.282687,-0.0557 -1.88961,0.023 -2.040671,0.26458 -0.249285,0.3986 0.737991,0.65046 2.766726,0.70583 1.082692,0.0296 1.262787,-0.0354 1.18789,-0.42819 z m 0.153465,-1.27841 c 0.408649,-1.06492 0.234522,-1.16898 -1.956068,-1.16898 -2.068101,0 -2.116666,0.0148 -2.116666,0.64624 0,0.56802 0.136126,0.65851 1.124479,0.74753 2.463847,0.22191 2.786273,0.19733 2.948255,-0.22479 z m 32.754659,0.28001 c 0.0762,-0.0762 0.0821,-0.43337 0.0132,-0.79375 -0.11982,-0.62679 -0.21007,-0.65524 -2.07878,-0.65524 h -1.95353 v 0.79375 0.79375 h 1.94027 c 1.06716,0 2.00261,-0.0623 2.07879,-0.13851 z m -32.503121,-2.56192 c 0.08396,-0.32106 0.127613,-0.60247 0.097,-0.62534 -0.240122,-0.17942 -4.156693,-0.28783 -4.156693,-0.11505 0,0.12239 -0.06863,0.4014 -0.15252,0.62 -0.179503,0.46778 0.388128,0.6154 2.569057,0.66812 1.329488,0.0321 1.506986,-0.027 1.643152,-0.54773 z m 32.452811,-0.0777 c 0,-0.65043 -0.0353,-0.66146 -2.11667,-0.66146 -2.08139,0 -2.11667,0.011 -2.11667,0.66146 0,0.65044 0.0353,0.66146 2.11667,0.66146 2.08139,0 2.11667,-0.011 2.11667,-0.66146 z m -33.205208,-1.47039 c -1.487519,-0.30768 -3.307292,-0.29933 -3.307292,0.0152 0,0.15747 0.883708,0.25227 2.182812,0.23416 1.873335,-0.0261 2.032763,-0.0615 1.12448,-0.24934 z m 32.213018,0.086 c -0.61847,-0.0557 -1.6305,-0.0557 -2.24896,0 -0.61846,0.0557 -0.11245,0.10128 1.12448,0.10128 1.23693,0 1.74294,-0.0456 1.12448,-0.10128 z m -31.286977,-1.12919 c 0,-0.48507 -0.176389,-0.52917 -2.116666,-0.52917 -1.667595,0 -2.116667,0.081 -2.116667,0.38167 0,0.3745 0.709411,0.51249 3.241146,0.63044 0.831207,0.0387 0.992187,-0.0396 0.992187,-0.48294 z m 32.100337,0.15816 c 0.22772,-0.59343 -0.059,-0.68733 -2.09862,-0.68733 -1.8468,0 -2.4395,0.2253 -2.08818,0.79375 0.26618,0.43069 4.01728,0.33534 4.1868,-0.10642 z m 1.41396,-1.37031 c 0.60657,-0.0752 1.25584,-0.32105 1.44284,-0.54637 0.3036,-0.36582 0.17143,-0.38567 -1.23514,-0.18547 -0.86632,0.12331 -3.45238,0.21623 -5.7468,0.20649 -2.73668,-0.0116 -4.08209,0.0719 -3.91124,0.24271 0.58023,0.58024 5.79194,0.73611 9.45034,0.28264 z m -30.008568,-0.2311 c 0.751723,-0.32611 0.545158,-0.75173 -0.264583,-0.54517 -1.051662,0.26827 -7.0699,0.18754 -8.913396,-0.11957 -0.864164,-0.14396 -1.630133,-0.20282 -1.702152,-0.1308 -0.317799,0.3178 0.576352,0.7336 1.996511,0.92843 1.82623,0.25054 8.220238,0.15489 8.88362,-0.13289 z m -1.031179,-0.91595 c 1.340325,-0.22025 1.747932,-0.56998 1.754732,-1.50555 0.0039,-0.54256 -0.07912,-0.55411 -3.104803,-0.43211 -2.884693,0.11631 -6.988972,-0.19334 -8.069791,-0.60884 -0.394491,-0.15165 -0.463021,-0.0179 -0.463021,0.9036 0,1.24609 0.06571,1.27885 3.23156,1.6112 2.610624,0.27406 5.104152,0.28595 6.651323,0.0317 z m 31.987427,-0.24527 c 0.59936,-0.24123 0.7276,-0.45605 0.7276,-1.21882 0,-0.90765 -0.017,-0.92218 -0.85989,-0.73416 -0.47295,0.10551 -3.09241,0.19183 -5.82103,0.19183 -5.33773,0 -5.17859,-0.0456 -4.7979,1.37408 0.0969,0.36135 0.42002,0.62712 0.85629,0.70429 1.30054,0.23008 9.16126,-0.0219 9.89493,-0.31722 z m -0.35051,-2.37038 c 0.49844,-0.10897 0.95043,-0.33063 1.00441,-0.49259 0.0704,-0.2111 -0.23038,-0.22439 -1.06246,-0.0469 -0.63834,0.13614 -3.20385,0.21218 -5.70114,0.16897 -2.94335,-0.0509 -4.50991,0.0145 -4.45347,0.18602 0.0479,0.14552 0.61361,0.34451 1.25715,0.44221 1.37592,0.20887 7.64672,0.0284 8.95551,-0.25769 z M 28.63684,474.3084 c 0.175619,-0.17634 -1.342449,-0.29191 -4.551578,-0.3465 -2.648296,-0.0451 -5.261567,-0.18123 -5.80727,-0.30261 -0.954817,-0.21237 -1.429178,0.10115 -0.621795,0.41097 1.575396,0.60454 10.424606,0.79645 10.980643,0.23814 z m 28.800994,-0.75815 c 2.13283,-0.0985 2.78429,-0.47066 3.40957,-1.94804 0.30804,-0.72783 0.30264,-1.2459 -0.0365,-3.50399 -0.5039,-3.35495 -0.49972,-4.48617 0.026,-7.02827 0.39676,-1.91854 0.39279,-2.24339 -0.0619,-5.0568 -0.26723,-1.6536 -0.59206,-2.97116 -0.72183,-2.9279 -0.12977,0.0433 -0.44695,0.76061 -0.70484,1.59411 -0.63098,2.03935 -1.11859,2.71608 -2.44504,3.3934 -1.21938,0.62265 -4.00963,0.94451 -5.60062,0.64603 -1.30339,-0.24451 -2.59804,-1.45328 -3.42326,-3.19617 -0.61035,-1.28908 -0.77967,-1.45485 -1.48601,-1.45485 -0.99218,0 -1.01614,0.35734 -0.23175,3.45536 0.51405,2.03029 0.53582,2.41582 0.23963,4.24346 -0.29823,1.84019 -0.27611,2.20504 0.26132,4.31207 0.38142,1.49538 0.53945,2.72457 0.45108,3.50856 -0.25574,2.26894 0.67534,3.91884 2.319,4.10933 0.78171,0.0906 4.24377,0.0273 8.00516,-0.1463 z m -4.1687,-2.01998 c 0,-0.14552 0.15146,-0.26458 0.33659,-0.26458 0.716,0 2.36749,-1.71909 3.45648,-3.59796 0.62643,-1.08083 1.21823,-1.88588 1.31509,-1.78902 0.17739,0.17739 -1.05338,2.51909 -2.02943,3.86125 -0.54282,0.74644 -2.33112,2.05489 -2.80848,2.05489 -0.14864,0 -0.27025,-0.11906 -0.27025,-0.26458 z m -2.71132,-7.38745 c -1.78341,-2.25934 -2.81183,-3.85287 -2.38309,-3.69257 0.14682,0.0549 1.02571,1.09526 1.95307,2.31192 0.92737,1.21666 1.90442,2.49658 2.17122,2.84427 0.2668,0.34769 0.35639,0.63216 0.1991,0.63216 -0.1573,0 -1.03043,-0.9431 -1.9403,-2.09578 z m 0.92538,-3.32576 c -0.47294,-0.20556 -0.85989,-0.49855 -0.85989,-0.6511 0,-0.36812 0.16843,-0.35 0.8692,0.0935 1.11236,0.70405 2.20077,0.75865 3.517,0.17642 1.40094,-0.61971 1.43463,-0.6275 1.43463,-0.33175 0,0.41598 -1.88132,1.10724 -2.98554,1.09698 -0.61353,-0.006 -1.50246,-0.17854 -1.9754,-0.3841 z M 28.39533,473.4109 c 0.362167,-0.10081 0.937788,-0.59496 1.279158,-1.09811 0.517408,-0.76261 0.593528,-1.12311 0.457515,-2.16681 -0.104227,-0.79978 -0.0089,-1.84723 0.263863,-2.89993 0.327951,-1.26561 0.386552,-2.26421 0.252586,-4.30425 -0.149454,-2.2759 -0.0958,-2.90262 0.374609,-4.37611 0.301975,-0.94589 0.625238,-2.34487 0.718364,-3.10886 l 0.169319,-1.38906 -0.896325,9.9e-4 c -0.815288,9e-4 -0.941352,0.11048 -1.394376,1.21196 -0.645998,1.57068 -1.641956,2.73728 -2.722241,3.18865 -0.484123,0.20228 -1.768715,0.35835 -2.922771,0.35509 -3.398257,-0.01 -5.020833,-1.07377 -5.882273,-3.85795 -0.26173,-0.84592 -0.609166,-1.58246 -0.772078,-1.63677 -0.742555,-0.24751 -0.918733,1.49199 -0.984599,9.72147 -0.07013,8.76279 0.0067,9.43464 1.138375,9.95543 0.260043,0.11967 2.199213,0.29046 4.309265,0.37953 5.415212,0.22859 5.87307,0.2303 6.611609,0.0247 z m -5.553276,-3.94127 c 0,-0.1147 0.537454,-0.65781 1.194342,-1.2069 1.403126,-1.17287 2.95831,-3.18661 3.96413,-5.13298 0.636511,-1.23172 1.191528,-1.78032 1.191528,-1.17776 0,0.6139 -2.751571,4.53382 -4.223687,6.01712 -1.600534,1.61268 -2.126313,1.98372 -2.126313,1.50052 z m -3.236027,-4.22913 c -0.68588,-1.03643 -1.791056,-3.10787 -1.791056,-3.35698 0,-0.36801 0.511514,-0.0861 0.65308,0.35994 0.08777,0.27652 0.63157,1.23304 1.208455,2.12559 1.116117,1.72685 1.178666,1.86955 0.819457,1.86955 -0.126183,0 -0.526654,-0.44914 -0.889936,-0.9981 z m 0.901474,-3.18406 c -0.234175,-0.15965 0.165722,-0.28551 1.207181,-0.37995 0.978204,-0.0887 2.092367,-0.42223 2.996011,-0.89689 1.891997,-0.9938 1.835528,-0.97271 1.835528,-0.68532 0,0.13737 -0.711065,0.62876 -1.580144,1.09197 -1.619562,0.86322 -3.834643,1.29554 -4.458576,0.87019 z m 6.518151,-4.21159 c 3.274035,-1.64778 4.837497,-12.63152 2.057312,-14.45317 -1.914301,-1.2543 -6.520035,-1.63223 -8.567431,-0.70301 -1.426316,0.64734 -2.068106,1.97317 -2.458864,5.07961 -0.551252,4.38231 0.427038,8.59892 2.257491,9.7302 1.839988,1.13718 4.833275,1.29166 6.711492,0.34637 z M 23.106637,447.7917 c -2.110052,-0.21077 -3.95552,-0.50743 -4.101041,-0.65923 -0.183044,-0.19095 0.183885,-0.22826 1.190625,-0.12105 0.800364,0.0852 3.21138,0.30419 5.357812,0.48658 2.146432,0.18238 3.902604,0.42551 3.902604,0.54027 0,0.28055 -1.755259,0.21239 -6.35,-0.24657 z m 33.069297,10.07055 c 1.95098,-0.80403 2.63981,-2.11858 3.20142,-6.10958 0.51381,-3.65125 -0.58625,-8.12649 -2.2031,-8.96259 -1.22256,-0.63221 -3.31467,-0.85827 -5.34244,-0.57726 -4.39329,0.60881 -5.54561,2.3506 -4.94186,7.46989 0.50483,4.28057 1.9065,7.41435 3.65035,8.16127 0.55497,0.2377 1.24716,0.48696 1.5382,0.5539 0.80644,0.18548 3.06363,-0.10959 4.09743,-0.53563 z m -8.36401,-9.80254 c 0.17314,-0.17314 8.10771,-1.08382 9.75669,-1.11981 0.40018,-0.009 0.7276,0.0796 0.7276,0.19621 0,0.11665 -2.17289,0.41751 -4.82864,0.66858 -5.31835,0.50279 -5.93106,0.53042 -5.65565,0.25502 z m -16.040183,5.14817 c -0.06063,-0.18191 -0.388055,-0.33073 -0.727604,-0.33073 -0.339548,0 -0.66697,0.14882 -0.727604,0.33073 -0.07272,0.21816 0.174919,0.33072 0.727604,0.33072 0.552685,0 0.800326,-0.11256 0.727604,-0.33072 z m 15.411973,0.0661 c 0,-0.14552 -0.29063,-0.26458 -0.64584,-0.26458 -0.35522,0 -0.71943,0.11906 -0.80937,0.26458 -0.0954,0.15437 0.17365,0.26458 0.64585,0.26458 0.44515,0 0.80936,-0.11906 0.80936,-0.26458 z m -29.633327,-1.05833 c 0,-0.29398 -0.176388,-0.52917 -0.396875,-0.52917 -0.220486,0 -0.396875,0.23519 -0.396875,0.52917 0,0.29398 0.176389,0.52916 0.396875,0.52916 0.220487,0 0.396875,-0.23518 0.396875,-0.52916 z m 29.104167,-0.0954 c 0,-0.19797 -0.0761,-0.91511 -0.1691,-1.59364 -0.15111,-1.10243 -0.22853,-1.21548 -0.72761,-1.0624 -0.30717,0.0942 -0.58504,0.19298 -0.61748,0.21947 -0.0552,0.0451 0.35165,1.73342 0.59426,2.46579 0.14809,0.44702 0.91993,0.4225 0.91993,-0.0292 z m 13.89062,-0.16922 c 0,-0.19402 -0.14883,-0.40238 -0.33073,-0.46302 -0.19674,-0.0656 -0.33073,0.12201 -0.33073,0.46302 0,0.34102 0.13399,0.52861 0.33073,0.46303 0.1819,-0.0606 0.33073,-0.269 0.33073,-0.46303 z m -28.516906,-1.05292 c 0.23609,-1.19402 0.21271,-1.33268 -0.249459,-1.47937 -0.665105,-0.21109 -0.669295,-0.2044 -0.883799,1.41261 -0.168252,1.26835 -0.139399,1.38427 0.344564,1.38427 0.422277,0 0.58043,-0.2642 0.788694,-1.31751 z M 17.517103,449.3052 c 0.03574,-1.58086 -0.290042,-2.12529 -0.593702,-0.99219 -0.29961,1.11799 -0.188821,2.57969 0.195527,2.57969 0.262423,0 0.372182,-0.4376 0.398175,-1.5875 z m 42.895781,-0.11668 c 0,-0.79177 -0.11906,-1.51317 -0.26458,-1.60311 -0.16527,-0.10214 -0.26459,0.43822 -0.26459,1.43959 0,0.89236 0.11731,1.60312 0.26459,1.60312 0.14552,0 0.26458,-0.64782 0.26458,-1.4396 z m -27.480446,-2.26457 c 0.0927,-1.09141 0.30104,-2.40031 0.46302,-2.90867 0.16198,-0.50836 0.29451,-1.32461 0.29451,-1.81389 0,-0.48928 0.18118,-1.58878 0.40262,-2.44334 0.22144,-0.85456 0.57729,-2.87814 0.79079,-4.49684 0.213486,-1.61871 0.516386,-3.41927 0.673106,-4.00126 0.15671,-0.58199 0.23345,-1.10964 0.17053,-1.17256 -0.0629,-0.0629 -1.350656,-0.29523 -2.861656,-0.51624 -2.29448,-0.33562 -4.443641,-0.77795 -9.122159,-1.87749 -0.522864,-0.12288 -0.563836,0.007 -0.727604,2.31465 -0.09545,1.34467 -0.173541,3.31953 -0.173541,4.38858 0,1.62218 -0.09197,2.0357 -0.555965,2.49969 -0.49045,0.49045 -0.802235,0.54478 -2.645833,0.46106 l -2.089869,-0.0949 -0.0015,1.32487 c -8.43e-4,0.72869 -0.130418,2.03926 -0.287946,2.91238 -0.157527,0.87313 -0.313651,2.30188 -0.346943,3.175 -0.03329,0.87313 -0.112076,1.75903 -0.175076,1.96866 -0.063,0.20964 0.08956,0.42591 0.339023,0.4806 0.320059,0.0702 0.500693,-0.1199 0.613663,-0.64574 0.337024,-1.56873 1.024575,-3.11897 1.633651,-3.68345 1.270277,-1.17725 5.421403,-1.49183 8.352705,-0.63298 2.201945,0.64515 3.366205,2.45526 3.366205,5.23354 0,1.37937 0.21055,1.65575 1.190621,1.56286 0.46073,-0.0437 0.55097,-0.30682 0.69768,-2.03453 z m -3.749234,-4.88306 c -2.175515,-1.13375 -4.09286,-1.54392 -6.449268,-1.37967 -1.177462,0.0821 -2.498028,0.22999 -2.93459,0.32872 -0.608398,0.13758 -0.724743,0.10584 -0.498234,-0.13595 0.562767,-0.60072 3.641679,-0.93819 5.766635,-0.63206 2.002148,0.28844 5.447223,1.67363 5.447223,2.1902 0,0.34582 0.09502,0.37231 -1.331766,-0.37124 z m -2.3724,-3.42606 c 0,-0.0589 0.639438,-0.46791 1.420974,-0.90898 0.781536,-0.44107 2.145539,-1.40494 3.031118,-2.14192 1.630622,-1.35702 1.897912,-1.51498 1.897912,-1.12159 0,0.31272 -3.135759,2.81394 -4.519317,3.6048 -1.062186,0.60717 -1.830687,0.84548 -1.830687,0.56769 z m 0.536682,-4.03184 c 0.0041,-0.12471 1.095767,-0.88159 2.425852,-1.68196 2.82,-1.6969 2.8583,-1.71516 2.8583,-1.36272 0,0.14788 -0.992717,0.8685 -2.206038,1.60138 -2.447907,1.47861 -3.089252,1.77933 -3.078114,1.4433 z m 18.716038,14.1269 c 0.14714,-0.1819 0.3135,-1.17731 0.36969,-2.21201 0.1811,-3.33467 1.72736,-4.49865 6.36603,-4.79216 4.03695,-0.25543 5.63905,0.60709 6.54073,3.52133 0.61742,1.99549 1.19331,2.27407 0.97555,0.4719 -0.0856,-0.7087 -0.26103,-2.85108 -0.38977,-4.76084 -0.12874,-1.90977 -0.30505,-3.58714 -0.39179,-3.7275 -0.0956,-0.15474 -0.74727,-0.1752 -1.65532,-0.052 -1.66778,0.22632 -2.59322,-0.008 -2.8693,-0.72794 -0.15338,-0.39968 -0.64555,-7.20423 -0.67359,-9.31266 -0.006,-0.48667 -0.10997,-0.583 -0.47131,-0.43866 -0.63027,0.25177 -8.30005,2.1495 -10.18656,2.52046 l -1.52146,0.29917 0.16023,1.50258 c 0.0881,0.82641 0.44536,2.77389 0.79385,4.32773 0.42662,1.90217 0.63363,3.64938 0.63363,5.34802 0,1.89896 0.13086,2.85485 0.52917,3.86536 0.31991,0.81162 0.52916,1.9664 0.52916,2.92021 0,1.36702 0.0663,1.57771 0.49677,1.57771 0.27323,0 0.61716,-0.14883 0.76429,-0.33073 z m 0.85561,-6.85073 c 0,-0.36509 2.25871,-1.26882 4.36562,-1.74673 1.54198,-0.34977 2.19671,-0.36993 3.91034,-0.12041 1.13203,0.16484 2.26313,0.42767 2.51354,0.58408 0.33601,0.20988 0.0741,0.22952 -0.99992,0.075 -3.01497,-0.43387 -5.52979,-0.22388 -7.73906,0.64621 -1.12779,0.44416 -2.05052,0.69701 -2.05052,0.56188 z m 1.34625,-5.39665 c -1.2742,-1.15116 -2.93731,-3.34648 -2.92537,-3.86151 0.005,-0.19878 0.26862,-0.004 0.58668,0.43233 0.31807,0.43656 1.28615,1.53838 2.15129,2.44849 1.7479,1.83877 1.87534,2.50564 0.1874,0.98069 z m -27.272501,-4.15679 c 0.0016,-2.51023 0.06463,-5.04031 0.140071,-5.62239 0.125815,-0.97081 0.0871,-0.92704 -0.46808,0.52916 l -0.60524,1.5875 -1.391226,0.0264 c -0.765175,0.0145 -1.432445,0.074 -1.482823,0.13229 -0.05038,0.0583 -0.170656,1.74572 -0.267285,3.74989 -0.203306,4.21677 -0.266898,4.11343 2.550317,4.14448 l 1.521354,0.0168 z m 1.047682,4.17651 c 0.226968,-0.27347 0.358258,-2.43456 0.446053,-7.34218 0.109667,-6.13025 0.07856,-6.89811 -0.26243,-6.47772 -0.279143,0.34415 -0.430861,1.52276 -0.544938,4.23334 -0.257882,6.12745 -0.307343,9.97411 -0.128251,9.97411 0.09236,0 0.312665,-0.17439 0.489566,-0.38755 z m 34.029279,-5.49933 c -0.20813,-6.44332 -0.3963,-7.9651 -1.06648,-8.62487 -0.48391,-0.4764 -0.48369,-0.45722 0.11525,9.9568 0.19417,3.3761 0.45332,4.55504 1.00127,4.55504 0.0771,0 0.0545,-2.64914 -0.05,-5.88697 z m 3.35085,5.49052 0.99219,-0.15669 -0.002,-1.90624 c -8.7e-4,-1.04843 -0.0778,-2.88586 -0.17105,-4.08317 l -0.16947,-2.17693 -1.21801,0.0603 c -1.19504,0.0591 -1.22973,0.0378 -1.84001,-1.13036 l -0.622,-1.19062 0.15898,3.28268 c 0.0874,1.80548 0.15898,4.28142 0.15898,5.5021 v 2.2194 l 0.8599,-0.13187 c 0.47294,-0.0725 1.30638,-0.20238 1.85208,-0.28856 z m -22.94159,-8.18372 c 0.0967,-0.64451 0.0969,-1.29935 6e-4,-1.45521 -0.0963,-0.15585 -0.73365,-0.29116 -1.41629,-0.30068 -0.682636,-0.01 -2.818996,-0.34059 -4.74747,-0.73572 -3.874775,-0.79389 -3.570198,-0.87641 -3.912924,1.06015 l -0.171415,0.96858 2.065211,0.45946 c 2.163498,0.48133 6.080272,1.09677 7.295168,1.14627 0.64482,0.0263 0.72784,-0.0807 0.88712,-1.14285 z m 11.23378,-0.50017 3.57187,-0.86617 -0.0783,-1.17719 c -0.043,-0.64746 -0.17142,-1.27036 -0.28529,-1.38422 -0.11387,-0.11387 -1.91787,0.21305 -4.00889,0.72649 -2.09102,0.51343 -4.04623,0.93534 -4.34491,0.93757 -1.05608,0.008 -1.28731,0.37371 -1.08575,1.7178 l 0.18763,1.25119 1.23586,-0.16965 c 0.67973,-0.0933 2.84321,-0.55943 4.80774,-1.03582 z m -27.063587,-2.27405 c 0.476564,-1.51549 1.05097,-2.95929 1.276457,-3.20845 0.371287,-0.41027 0.367762,-0.46922 -0.03735,-0.62468 -0.246031,-0.0944 -1.299248,-0.24367 -2.340482,-0.33169 l -1.893154,-0.16003 -0.34756,1.1589 c -0.191159,0.63739 -0.49361,2.1457 -0.672115,3.3518 -0.382093,2.58168 -0.273456,2.7378 1.833072,2.63422 l 1.314653,-0.0646 z m 40.109077,1.83663 c 0.22938,-0.21035 -0.42906,-4.43609 -0.90311,-5.79595 -0.33153,-0.95104 -0.92998,-1.04075 -3.49978,-0.52466 -1.18972,0.23893 -1.41974,0.36201 -1.11252,0.59531 0.21301,0.16176 0.75933,1.36567 1.21404,2.67536 1.20992,3.48488 1.33723,3.63794 2.84663,3.42259 0.68284,-0.0974 1.33748,-0.26512 1.45474,-0.37265 z m -34.883102,-0.33796 c 0.442457,-1.98221 0.382405,-2.10725 -1.247281,-2.5972 l -1.521354,-0.45738 v 1.53408 1.53407 l 0.992188,0.26353 c 1.483497,0.39401 1.631808,0.37087 1.776447,-0.2771 z m 28.405542,-1.78393 c 0.0471,-0.47794 0.0179,-1.1387 -0.0648,-1.46835 -0.14685,-0.58509 -0.17987,-0.59049 -1.38739,-0.22709 -0.68033,0.20475 -1.26546,0.40164 -1.30029,0.43754 -0.0348,0.0359 0.0575,0.67407 0.20519,1.41817 l 0.2685,1.35291 1.09657,-0.3221 c 0.96599,-0.28374 1.10677,-0.42557 1.18221,-1.19108 z m -17.39333,-1.91931 c 0.39487,-2.5087 0.39243,-2.69484 -0.0411,-3.12839 -0.54258,-0.54258 -2.640466,-3.64914 -4.062176,-6.0153 -0.70947,-1.18077 -0.963915,-1.86957 -0.870716,-2.35711 0.09597,-0.50202 -0.170061,-1.16179 -0.980919,-2.43276 -1.582199,-2.48001 -3.793766,-6.3069 -5.564128,-9.62816 l -1.522969,-2.85715 -1.32014,0.079 -1.320141,0.079 -0.908018,3.57188 c -0.554106,2.17969 -0.852058,3.89171 -0.764443,4.39248 0.07897,0.45133 0.01727,1.70148 -0.137103,2.77812 -0.493535,3.44205 -1.283001,10.11557 -1.35836,11.48252 l -0.07293,1.32292 2.284708,0.3016 c 1.256589,0.16588 2.413611,0.38126 2.571159,0.47863 0.157549,0.0974 0.286452,0.58968 0.286452,1.09402 0,1.09723 -0.04072,1.07773 4.671208,2.23691 3.254878,0.80073 8.280516,1.6108 8.557726,1.3794 0.0726,-0.0606 0.32099,-1.31057 0.55192,-2.77765 z m -2.872566,-2.89727 c -1.33067,-1.03686 -1.88945,-1.8282 -0.92026,-1.30327 0.76823,0.41608 2.589566,2.08603 2.441616,2.23868 -0.0759,0.0784 -0.760546,-0.34259 -1.521356,-0.93541 z m -9.429102,-6.317 c -1.733067,-1.73788 -3.068484,-3.24232 -2.967595,-3.34321 0.18707,-0.18707 6.5155,5.96576 6.5155,6.3347 0,0.47596 -0.565812,-10e-4 -3.547905,-2.99149 z m 5.34998,-0.25092 c -2.126781,-3.43337 -3.652259,-5.59129 -5.483544,-7.75692 -2.322325,-2.74633 -2.544361,-3.52045 -0.307865,-1.07337 2.730496,2.9876 6.522066,8.51354 6.299538,9.18112 -0.05596,0.16787 -0.284615,0.01 -0.508129,-0.35083 z m 17.115628,10.69168 c 6.204,-1.51876 6.86607,-1.75619 6.96772,-2.49876 0.1309,-0.95627 0.32986,-1.06993 2.73696,-1.56357 1.49804,-0.30722 2.17681,-0.56083 2.12407,-0.79365 -0.0426,-0.18818 -0.2505,-2.26159 -0.46196,-4.60758 -0.21146,-2.34598 -0.5053,-5.09886 -0.65298,-6.11751 -0.14768,-1.01864 -0.4455,-3.69755 -0.66181,-5.95312 -0.54481,-5.68097 -0.53523,-5.65445 -2.10781,-5.83757 l -1.2798,-0.14903 -0.94207,2.1334 c -1.7118,3.87654 -7.75931,15.86033 -8.89421,17.62484 -0.61309,0.95321 -1.64273,2.19244 -2.2881,2.75384 l -1.1734,1.02073 0.58562,2.53783 c 0.32209,1.39581 0.59421,2.56462 0.60471,2.59736 0.0374,0.11647 1.78989,-0.2529 5.44306,-1.14721 z m -2.16057,-3.35965 c 3.29806,-2.14203 5.06049,-3.38419 6.83883,-4.82 1.87626,-1.51486 2.59778,-1.96098 2.59778,-1.6062 0,0.0587 -1.10133,0.99758 -2.44739,2.08648 -2.8933,2.34051 -6.44109,4.69237 -7.04541,4.67045 -0.367,-0.0133 -0.35888,-0.0611 0.0562,-0.33073 z m 4.14495,-9.08039 c 0,-0.0915 0.76347,-0.97559 1.69662,-1.96477 0.93314,-0.98918 2.20472,-2.54673 2.82574,-3.46121 0.62101,-0.91448 1.17731,-1.51811 1.23621,-1.3414 0.13788,0.41362 -1.92285,3.3006 -3.81407,5.34335 -1.3315,1.43818 -1.9445,1.8871 -1.9445,1.42403 z m -34.13125,11.3952 c 0,-0.496 -0.38136,-1.70172 -0.692075,-2.1881 -0.107736,-0.16864 -1.424591,0.8125 -1.424591,1.06141 0,0.1385 0.306383,0.6535 0.680851,1.14445 0.753735,0.9882 1.435815,0.97976 1.435815,-0.0178 z m 48.70387,-0.28196 0.59287,-0.95928 -0.63744,-0.49005 c -0.35059,-0.26952 -0.70762,-0.49269 -0.7934,-0.49593 -0.28411,-0.0107 -0.77007,1.32918 -0.77007,2.12323 0,1.13409 0.85567,1.03938 1.60804,-0.17797 z m -50.828951,0.49625 c -0.01627,-0.3838 -0.781939,-1.21607 -0.957368,-1.04064 -0.09763,0.0976 0.03866,0.41636 0.302856,0.70829 0.515144,0.56923 0.667844,0.64677 0.654512,0.33235 z m 52.321461,-1.02254 c -0.25743,-0.25742 -0.98388,0.4184 -0.98388,0.9153 0,0.34018 0.11398,0.30929 0.58061,-0.15734 0.31934,-0.31934 0.50081,-0.66042 0.40327,-0.75796 z m -53.195827,-0.69725 c -0.937519,-2.1289 -1.510207,-3.71447 -1.386356,-3.83833 0.200344,-0.20034 0.206917,-0.18917 0.973338,1.65432 0.694325,1.67007 1.108308,1.95631 1.9255,1.33132 0.453247,-0.34664 0.467836,-0.49305 0.164318,-1.64902 -0.449307,-1.71122 -0.366279,-6.5227 0.129089,-7.48064 0.20913,-0.40441 0.563234,-0.80552 0.786897,-0.89134 0.56183,-0.2156 0.508686,-0.86439 -0.122506,-1.49558 -0.464064,-0.46406 -0.879091,-0.52872 -3.373437,-0.52555 -3.3052301,0.004 -4.0348961,0.14686 -4.0348961,0.78892 0,0.41307 0.134334,0.43758 1.178187,0.21495 2.6359151,-0.56219 3.3092341,0.0423 3.3158291,2.97684 0.0054,2.38816 -0.247422,2.6621 -2.6126911,2.83134 l -1.915412,0.13704 0.176566,1.08771 c 0.167257,1.03036 0.651271,1.97637 0.651271,1.27292 0,-0.7293 0.436506,-0.22869 0.873547,1.00183 0.257721,0.72563 0.762183,1.64837 1.121025,2.05052 0.6222001,0.6973 0.6145451,0.64858 -0.16515,-1.05114 -0.449675,-0.98028 -0.768498,-1.92961 -0.708496,-2.10961 0.06,-0.18001 0.434128,0.38392 0.831392,1.25316 0.9699671,2.12236 1.4190991,2.77107 1.9185471,2.77107 0.236555,0 0.355649,-0.14404 0.273438,-0.33073 z m 54.986837,-2.07816 c 0.5457,-1.16287 1.04175,-2.06474 1.10232,-2.00417 0.13879,0.13879 -0.94678,3.10823 -1.29897,3.55317 -0.17575,0.22203 -0.16786,0.33072 0.024,0.33072 0.38823,0 1.58556,-2.08764 1.79343,-3.127 0.17253,-0.86268 0.4979,-1.09955 0.70193,-0.51102 0.0631,0.18191 0.24264,-0.26063 0.39908,-0.9834 0.15644,-0.72278 0.2268,-1.40739 0.15636,-1.52136 -0.0704,-0.11397 -0.95742,-0.20722 -1.97108,-0.20722 -1.73491,0 -1.85816,-0.0398 -2.10105,-0.67868 -0.36416,-0.95779 -0.32325,-3.91277 0.0595,-4.29548 0.18532,-0.18532 1.07418,-0.3175 2.13507,-0.3175 1.73355,0 1.81366,-0.0275 1.73302,-0.59531 -0.0822,-0.57881 -0.18178,-0.59736 -3.59089,-0.66915 l -3.50635,-0.0738 -0.44773,0.93891 c -0.43623,0.91479 -0.43287,0.94932 0.13086,1.34417 0.31823,0.22289 0.70991,0.65063 0.8704,0.95051 0.47833,0.89376 0.56746,5.60558 0.13722,7.25317 l -0.37755,1.44578 0.80517,0.41636 c 0.95,0.49127 0.98965,0.4519 1.82983,-1.81634 0.30994,-0.83675 0.65832,-1.52136 0.77418,-1.52136 0.26379,0 -0.0538,1.12864 -0.77888,2.76775 -0.30618,0.69218 -0.49433,1.35944 -0.41809,1.48279 0.31916,0.51641 0.9046,-0.172 1.83822,-2.16151 z m -29.68644,-1.47828 c -0.914,-1.46675 -2.986366,-5.27863 -2.986366,-5.49307 0,-0.0796 0.11756,-0.14476 0.26126,-0.14476 0.14369,0 0.695436,0.8632 1.226096,1.91823 1.5267,3.03525 2.67564,4.69635 3.24833,4.69635 0.70471,0 1.60216,-1.14646 3.37163,-4.30717 1.77474,-3.17011 1.63941,-2.96762 1.84562,-2.76141 0.19619,0.19619 -1.67016,3.68098 -3.12604,5.83681 -0.57435,0.85049 -0.97986,1.61076 -0.90114,1.68948 0.51982,0.51982 2.90584,-2.38272 4.79752,-5.83609 l 0.98957,-1.80652 -0.63091,-1.34955 c -1.26723,-2.71071 -0.94315,-2.57804 -6.29764,-2.57804 -4.160566,0 -4.751056,0.0539 -5.125616,0.46777 -0.54361,0.60068 -1.49741,2.69878 -1.50495,3.31049 -0.007,0.54066 2.44532,4.67102 4.015566,6.76419 0.73268,0.97668 1.14591,1.32941 1.33542,1.13991 0.1895,-0.1895 0.0291,-0.66809 -0.51835,-1.54662 z m 5.10522,-7.57355 c -0.62138,-0.45436 -0.44068,-1.34873 0.29373,-1.45377 0.80638,-0.11534 1.29286,0.81726 0.72338,1.38674 -0.49947,0.49947 -0.43182,0.49501 -1.01711,0.067 z m 0.84361,-0.6605 c 0.0576,-0.17281 -0.0838,-0.31419 -0.31419,-0.31419 -0.23041,0 -0.41893,0.18851 -0.41893,0.41892 0,0.46723 0.56959,0.38586 0.73312,-0.10473 z m -8.395436,0.36003 c -0.27691,-0.33365 -0.27691,-0.48563 0,-0.81928 0.530476,-0.63919 1.444606,-0.37997 1.444606,0.40964 0,0.78961 -0.91413,1.04883 -1.444606,0.40964 z m 0.981556,-0.56402 c -0.25214,-0.25213 -0.75763,0.15626 -0.56973,0.4603 0.11168,0.18071 0.25968,0.17614 0.4497,-0.0139 0.15577,-0.15578 0.20978,-0.35667 0.12003,-0.44643 z m -18.30944,8.33556 c 0.09704,-0.15702 0.02906,-0.81186 -0.151062,-1.45521 -0.337381,-1.205 -0.671868,-1.39204 -1.600593,-0.895 -0.487539,0.26092 -0.49165,0.31741 -0.08183,1.12448 0.764145,1.50486 1.398768,1.92912 1.833485,1.22573 z m 43.11833,-0.40547 c 0.60797,-0.65602 1.07571,-1.62465 0.87934,-1.82102 -0.05,-0.05 -0.39559,-0.16733 -0.76807,-0.26082 -0.5562,-0.1396 -0.73341,-0.0466 -0.99164,0.52011 -0.38866,0.85301 -0.41178,2.25268 -0.0372,2.25268 0.15247,0 0.56538,-0.31093 0.91758,-0.69095 z m -42.19189,-5.93074 c 0.314794,-2.39718 0.652912,-5.60867 0.751372,-7.13664 0.167493,-2.59926 0.144381,-2.80327 -0.358981,-3.16872 -0.295899,-0.21483 -0.807072,-0.67997 -1.135939,-1.03366 -0.328867,-0.35368 -0.632891,-0.59463 -0.67561,-0.53544 -0.562485,0.77934 -1.036021,2.72999 -1.219366,5.02296 -0.123079,1.53927 -0.373819,3.03893 -0.557198,3.33257 -0.286716,0.4591 -0.20189,0.80829 0.605592,2.49298 0.856317,1.78658 1.130938,2.59757 1.637116,4.83459 0.09443,0.41736 0.218717,0.71181 0.276181,0.65435 0.05746,-0.0575 0.362038,-2.06581 0.676833,-4.46299 z m 42.68107,-1.2847 c 0.85162,-1.77114 0.90643,-2.01786 0.5877,-2.64584 -0.19333,-0.3809 -0.43255,-1.82365 -0.53159,-3.2061 -0.18193,-2.53924 -0.57509,-4.32754 -0.91919,-4.18089 -0.10304,0.0439 -0.72842,0.43704 -1.38972,0.8736 -1.17138,0.7733 -1.19968,0.82443 -1.09827,1.98438 0.12803,1.46461 1.09207,10.00878 1.31351,11.64166 l 0.16147,1.19063 0.46844,-1.85209 c 0.25764,-1.01864 0.89108,-2.73105 1.40765,-3.80535 z m -45.094717,4.6984 c 0.747765,-0.26067 0.832044,-0.38372 0.679554,-0.99219 -0.280363,-1.1187 -1.236203,-3.20815 -1.467602,-3.20815 -0.445467,0 -1.309538,1.42725 -1.309538,2.16306 0,0.5804 0.902381,2.33486 1.2009,2.33486 0.02368,0 0.427188,-0.13391 0.896686,-0.29758 z m -5.686685,-0.22504 c 0.633766,-0.24096 0.678682,-0.37344 0.678682,-2.00177 0,-0.95905 -0.123251,-1.97403 -0.273892,-2.25551 -0.335759,-0.62737 -1.7089631,-0.68533 -3.0418971,-0.12839 l -0.917544,0.38337 v 2.13017 2.13016 h 1.437984 c 0.790891,0 1.743391,-0.11611 2.1166671,-0.25803 z m 52.126672,-0.62684 c 0.86325,-1.13178 0.84907,-1.55771 -0.0867,-2.60506 l -0.76166,-0.85245 -0.69355,1.36865 c -0.74797,1.47605 -0.89175,2.58508 -0.36282,2.79851 0.76884,0.31023 1.269,0.12389 1.90477,-0.70965 z m 7.49907,-1.69481 -0.0773,-2.05052 h -1.85209 -1.85208 l -0.0798,1.69192 c -0.0439,0.93056 -0.0179,1.85329 0.0578,2.05052 0.0978,0.25497 0.67841,0.3586 2.00912,0.3586 h 1.87152 z m -21.25938,-6.13616 c 1.24542,-2.46539 2.2644,-4.5988 2.2644,-4.74092 0,-0.30234 -1.82082,-1.47936 -2.00445,-1.29573 -0.0685,0.0685 -1.00853,1.89013 -2.08897,4.04808 l -1.96443,3.92353 0.54797,1.27378 c 0.30138,0.70057 0.64541,1.27377 0.76452,1.27377 0.11911,0 1.23554,-2.01713 2.48096,-4.48251 z m -17.075092,-2.1916 c -1.148459,-1.93179 -2.180487,-3.67395 -2.293395,-3.87148 -0.164312,-0.28744 -0.400091,-0.23463 -1.18125,0.26459 -0.536779,0.34304 -0.981002,0.71091 -0.987161,0.81749 -0.0089,0.15425 3.631457,6.50751 4.845965,8.45728 0.239807,0.38498 0.381167,0.26337 0.991807,-0.85328 l 0.71214,-1.30225 z m -16.908421,4.04235 c 0.07276,-0.0166 -0.08661,-0.15742 -0.354167,-0.31296 -0.608817,-0.35394 -5.3263271,-0.62972 -6.6200931,-0.38701 -0.529782,0.0994 -0.963253,0.32414 -0.963268,0.49945 -2.1e-5,0.23618 1.010799,0.30734 3.9026041,0.27471 2.146448,-0.0242 3.962163,-0.0576 4.034924,-0.0742 z m 55.415873,-0.46862 c 0.20979,-0.54737 -0.42074,-0.71672 -3.02838,-0.81334 -2.82628,-0.10472 -4.59131,0.17695 -4.70139,0.75027 -0.062,0.32308 0.54638,0.38533 3.76614,0.38533 2.77425,0 3.8744,-0.0894 3.96363,-0.32226 z m -21.01327,-9.33503 c 1.19404,-2.83013 1.19299,-2.76628 0.0539,-3.27994 -0.77262,-0.3484 -1.17104,-0.39135 -1.71433,-0.18479 -1.51053,0.5743 -3.10883,-0.66997 -3.10883,-2.42022 0,-1.09513 0.53634,-1.88173 1.57696,-2.31277 1.03982,-0.43071 2.2179,0.0165 2.84644,1.08053 0.46002,0.77875 2.38567,1.74942 2.72993,1.37609 0.10754,-0.11662 0.2748,-0.47469 0.37169,-0.79572 0.15192,-0.50333 -0.017,-0.68152 -1.22703,-1.29431 -0.77176,-0.39084 -1.77163,-0.99138 -2.22193,-1.33454 -0.4503,-0.34315 -1.14406,-0.62392 -1.5417,-0.62392 -1.0203,0 -2.26978,-1.30687 -2.26978,-2.37403 0,-1.02137 0.59816,-2.22146 1.38028,-2.76928 1.49476,-1.04697 3.91139,0.0996 3.91139,1.85579 0,0.74551 0.16924,1.01076 0.99252,1.55559 1.07963,0.71446 3.80406,1.73193 4.63751,1.73193 0.49306,0 0.5104,-0.12727 0.3334,-2.44739 -0.2795,-3.6638 -0.29495,-4.75721 -0.0781,-5.52948 0.16311,-0.58095 0.0152,-0.92038 -0.86442,-1.98437 -1.12841,-1.36485 -3.1384,-5.00559 -3.21415,-5.82187 -0.025,-0.26882 -0.11498,1.05905 -0.20006,2.95082 -0.16671,3.70647 -0.35336,4.2481 -1.79053,5.1957 -0.64005,0.42202 -1.29739,0.4896 -4.77707,0.4911 l -4.0349,0.002 v 12.96459 12.96458 l 1.38906,0.004 c 0.76399,0.002 1.56766,0.11756 1.78594,0.25629 0.32334,0.20551 0.75923,-0.4693 2.35258,-3.64207 1.07563,-2.14187 2.28221,-4.66822 2.68128,-5.6141 z m -5.03386,-1.28226 c 0.21828,-0.1413 0.87313,-0.34176 1.45521,-0.44546 0.81814,-0.14576 0.99054,-0.11648 0.75964,0.129 -0.16428,0.17466 -0.81912,0.37512 -1.45521,0.44546 -0.80618,0.0892 -1.03629,0.0501 -0.75964,-0.129 z m 7.04526,-12.54222 c 0.58934,-0.9878 2.31352,-3.10886 2.52715,-3.10886 0.30306,0 0.1458,0.27167 -1.18694,2.05052 -0.57239,0.76399 -1.1525,1.38907 -1.28912,1.38907 -0.13663,0 -0.15962,-0.14883 -0.0511,-0.33073 z m -35.940417,20.66883 c 0.07346,-1.93361 0.05008,-2.02587 -0.551729,-2.17691 -2.330235,-0.58486 -7.3855761,-0.47411 -8.1953921,0.17953 -0.295213,0.23828 -0.357028,0.7314 -0.260535,2.07839 l 0.126508,1.76598 2.814719,-0.13548 c 1.5480951,-0.0745 3.2909681,-0.0159 3.8730511,0.13036 2.016272,0.50647 2.107058,0.43024 2.193378,-1.84187 z m 22.015997,-10.8131 v -12.96459 h -2.539706 c -2.941709,0 -4.046102,-0.38892 -4.864457,-1.71304 -0.463842,-0.75051 -0.533337,-1.31569 -0.533337,-4.33746 0,-3.2209 -0.03621,-3.4745 -0.496094,-3.4745 -0.272851,0 -0.862447,-0.0733 -1.310213,-0.16282 -0.732559,-0.14651 -0.832074,-0.0869 -0.993346,0.59531 -0.337114,1.42601 -2.311677,4.90871 -3.556915,6.27363 l -1.244097,1.36367 -0.102271,4.23334 -0.102272,4.23333 0.79375,-0.0799 c 0.436562,-0.0439 0.936493,-0.26673 1.110956,-0.4951 0.217934,-0.28526 0.532632,-0.36114 1.005549,-0.24244 0.500483,0.12561 1.125648,-0.0603 2.290702,-0.68129 0.881299,-0.46973 1.639248,-0.97952 1.684332,-1.13287 0.04508,-0.15336 0.154642,-0.60994 0.243462,-1.01464 0.187604,-0.85479 1.521321,-1.77527 2.574386,-1.77674 0.389017,-5.4e-4 1.069575,0.30385 1.512355,0.67642 1.88312,1.58454 0.98389,4.87884 -1.331748,4.87884 -0.392776,0 -1.705737,0.51722 -2.917691,1.14938 -1.211954,0.63215 -2.36194,1.20089 -2.555522,1.26385 -0.286214,0.0931 -0.290637,0.24908 -0.02368,0.835 0.55547,1.21912 2.137998,0.80074 3.69989,-0.97815 1.255374,-1.4298 2.971978,-1.26318 3.816768,0.37046 1.12625,2.17792 -0.62821,4.46175 -2.861385,3.72474 -0.752215,-0.24825 -1.077515,-0.22114 -1.867643,0.15564 -0.526227,0.25094 -0.956776,0.55666 -0.956776,0.67938 0,0.41678 1.646699,3.50281 4.028778,7.55022 l 2.374716,4.0349 h 1.560749 1.56076 z m -5.55625,2.64583 c 0,-0.30768 1.420524,-0.30768 2.381254,0 0.50481,0.16167 0.30117,0.21808 -0.8599,0.23821 -0.85543,0.0148 -1.521354,-0.0894 -1.521354,-0.23821 z M 25.82541,384.76739 c -1.962168,-1.63746 -2.241526,-1.90879 -2.105402,-2.04491 0.133875,-0.13388 3.355379,2.22834 3.355379,2.46038 0,0.26038 -0.731435,0.0173 -1.249977,-0.41547 z m 14.479144,10.03374 v -12.96459 h -1.32292 -1.32292 v 12.96459 12.96458 h 1.32292 1.32292 z m 25.00312,12.00474 c 1.16417,-0.0857 2.77151,-0.0344 3.57187,0.11404 0.80037,0.14841 1.51284,0.21282 1.58326,0.14313 0.0704,-0.0697 0.17201,-0.99729 0.22575,-2.06135 l 0.0977,-1.93465 -1.70262,-0.2965 c -0.93645,-0.16307 -2.15937,-0.2965 -2.71762,-0.2965 -1.25957,0 -4.42602,0.52323 -4.70254,0.77705 -0.11255,0.10331 -0.12425,1.05272 -0.026,2.10981 0.17685,1.90281 0.18549,1.92038 0.86609,1.76138 0.3781,-0.0883 1.63995,-0.23071 2.80412,-0.31641 z m -54.901036,-4.19954 c 1.091406,0 2.682317,0.0995 3.535357,0.22118 1.24769,0.17793 1.528061,0.15206 1.433765,-0.13229 -0.42235,-1.27358 -8.9840461,-1.27328 -9.4085841,3.3e-4 -0.09201,0.27603 0.151847,0.30309 1.169419,0.12977 0.707117,-0.12044 2.178636,-0.21899 3.2700431,-0.21899 z m 53.944866,-0.42782 c 1.44414,-0.20087 2.57405,-0.19335 4.08205,0.0271 1.14685,0.16769 2.145,0.24507 2.21812,0.17195 0.32425,-0.32425 -0.30758,-0.68542 -1.71059,-0.97781 -2.4109,-0.50243 -7.73445,0.0423 -7.73445,0.79144 0,0.36345 0.36782,0.56438 0.75861,0.41442 0.21416,-0.0822 1.28797,-0.2744 2.38626,-0.42715 z m -53.944866,-0.89509 c 1.091406,0 2.729964,0.10115 3.641241,0.22479 l 1.656867,0.22479 0.55633,-1.25768 c 0.423389,-0.95714 0.516757,-1.5464 0.390725,-2.4659 -0.117509,-0.85732 -0.01441,-1.67157 0.354976,-2.80357 0.28632,-0.87744 0.663423,-2.60489 0.838007,-3.83877 0.174584,-1.23388 0.536953,-2.86802 0.805264,-3.63141 0.268312,-0.7634 0.487839,-1.88285 0.487839,-2.48768 0,-0.60483 0.372097,-2.1834 0.826882,-3.50794 0.545023,-1.58736 0.872028,-3.13191 0.959328,-4.53122 l 0.132447,-2.12296 -1.481189,-2.62919 c -0.814653,-1.44606 -1.410981,-2.69536 -1.325172,-2.77623 0.178468,-0.16819 0.234472,-0.086 1.852611,2.71945 0.65754,1.14001 1.242454,2.02581 1.299808,1.96846 0.05735,-0.0574 -0.372408,-1.989 -0.955027,-4.29255 -0.992241,-3.92309 -1.161844,-5.08529 -0.574756,-3.93849 0.136751,0.26712 0.592882,1.8549 1.013624,3.52839 l 0.764986,3.04271 0.07801,-2.0913 c 0.08795,-2.35791 -0.634296,-6.61694 -1.703086,-10.0429 -0.854675,-2.73961 -2.985692,-7.84184 -3.275257,-7.84184 -0.347618,0 -1.846564,1.92846 -1.846332,2.37539 1.15e-4,0.2215 0.360241,1.16378 0.800281,2.09394 0.44004,0.93017 0.744018,1.74727 0.675507,1.81578 -0.164182,0.16418 -1.132974,-1.4263 -1.53181,-2.5148 -0.17329,-0.47294 -0.393629,-0.8599 -0.489642,-0.8599 -0.201475,0 -1.691715,2.76438 -1.948296,3.61406 -0.151109,0.50041 0.09155,0.71206 1.95436,1.70461 1.60572,0.85556 2.126466,1.26664 2.125156,1.6776 -0.0032,1.0113 -2.338715,9.21899 -2.691294,9.45811 -0.338101,0.2293 -1.566574,0.15464 -3.304584,-0.20083 -0.7519001,-0.15379 -0.8840221,-0.0829 -1.2827321,0.68811 -0.244472,0.47275 -0.543103,1.82514 -0.663625,3.0053 -0.120522,1.18016 -0.415672,2.74106 -0.655889,3.46867 -0.32552,0.98598 -0.397111,1.83536 -0.281093,3.33495 0.139631,1.80479 0.08307,2.1706 -0.549103,3.55145 -0.675415,1.4753 -0.692268,1.61982 -0.404645,3.46988 0.265451,1.70745 0.240394,2.12238 -0.216904,3.59168 -0.321588,1.03326 -0.460183,2.0167 -0.366647,2.60163 0.09313,0.58237 -0.01041,1.32525 -0.271935,1.95117 -0.525362,1.25736 -0.532235,2.02295 -0.02897,3.22742 0.389208,0.93151 0.405194,0.93906 1.521354,0.71911 0.620408,-0.12226 2.020982,-0.22229 3.1123891,-0.22229 z m -1.3229171,-4.63021 c 0,-0.15468 0.906694,-0.26627 2.1828121,-0.26864 2.750881,-0.005 3.271255,-0.27072 2.028757,-1.03554 -0.497352,-0.30614 -1.586575,-0.8079 -2.420494,-1.11501 -0.833919,-0.30711 -1.4542101,-0.65871 -1.3784251,-0.78134 0.174779,-0.28279 2.5273731,0.62223 4.0852661,1.57158 2.110598,1.28616 1.431328,1.80301 -2.447395,1.86223 -1.2114951,0.0185 -2.0505211,-0.077 -2.0505211,-0.23328 z m 4.0522431,-7.89148 c -1.785619,-1.32396 -2.99391,-2.56676 -2.99391,-3.07942 0,-0.54229 5.593378,1.18877 6.464653,2.0007 0.614644,0.57279 -0.180038,0.41745 -2.114039,-0.41323 -1.155911,-0.49648 -2.458843,-0.98526 -2.895405,-1.08618 l -0.79375,-0.1835 0.922078,0.97154 c 0.507144,0.53434 1.578706,1.4092 2.38125,1.94412 1.925175,1.2832 2.040512,1.38745 1.535,1.38745 -0.234785,0 -1.362429,-0.69367 -2.505877,-1.54148 z m 1.500475,-4.71045 c -1.752932,-1.15953 -3.436051,-2.72432 -3.436051,-3.19448 0,-0.18874 0.05681,-0.34317 0.126251,-0.34317 0.404967,0 3.75814,1.40622 4.777135,2.0034 1.983631,1.16248 1.089726,1.07663 -1.473603,-0.14152 -1.315242,-0.62504 -2.455512,-1.07227 -2.533934,-0.99385 -0.155234,0.15524 2.153545,1.9335 3.535921,2.72344 0.800022,0.45715 1.126129,0.90644 0.657927,0.90644 -0.111083,0 -0.855224,-0.43212 -1.653646,-0.96026 z m -0.124627,-5.91475 c -1.305893,-1.31197 -2.195445,-2.3854 -1.976784,-2.3854 0.516812,0 4.579936,4.08439 4.450226,4.47352 -0.0545,0.1635 -1.16755,-0.77615 -2.473442,-2.08812 z m 2.134484,-2.78571 c -0.42061,-1.23881 -0.690244,-2.32689 -0.599188,-2.41794 0.171799,-0.1718 0.417123,0.36927 1.266607,2.79352 0.551849,1.57487 0.599999,1.87681 0.29929,1.87681 -0.111081,0 -0.5461,-1.01358 -0.966709,-2.25239 z m 42.251098,25.51646 c 0.89683,-0.73925 0.98632,-0.93207 0.98632,-2.12517 0,-0.72168 -0.17859,-1.73958 -0.39687,-2.262 -0.21828,-0.52242 -0.39688,-1.2713 -0.39688,-1.66416 0,-0.61281 -0.73006,-3.18982 -0.90367,-3.18982 -0.0331,0 -0.50269,0.21524 -1.04354,0.47831 l -0.98336,0.47832 1.00226,0.64661 c 1.36056,0.87775 1.51255,2.06469 0.39775,3.10606 l -0.77179,0.72097 0.40317,2.31194 c 0.22174,1.27158 0.47452,2.31195 0.56172,2.31195 0.0872,0 0.60241,-0.36585 1.14489,-0.81301 z m -38.754321,-1.63438 0.517383,-2.18282 -0.776545,-0.72662 c -0.660053,-0.61763 -0.764333,-0.89417 -0.695138,-1.84345 0.06699,-0.91901 0.232775,-1.21849 0.936035,-1.69085 l 0.854628,-0.57403 -0.798594,-0.33079 c -0.88005,-0.36453 -1.297317,-0.96023 -1.327015,-1.89447 -0.0235,-0.73922 -1.011922,3.09041 -1.027747,3.98199 -0.0061,0.34428 -0.207505,1.17892 -0.447544,1.85476 -0.632908,1.78199 -0.318921,3.56373 0.830591,4.71324 0.481714,0.48172 0.997506,0.87585 1.146204,0.87585 0.148698,0 0.503182,-0.98227 0.787742,-2.18281 z m 43.709391,1.61703 c 1.4054,-0.27717 4.79531,-0.17113 6.01982,0.1883 0.50529,0.14831 0.6591,0.0236 1.01189,-0.8208 0.35504,-0.84973 0.3721,-1.32939 0.11639,-3.27214 -0.16481,-1.25205 -0.48209,-2.9095 -0.70509,-3.68323 -0.28141,-0.97641 -0.35078,-1.87773 -0.22676,-2.94626 0.13493,-1.16254 0.076,-1.73805 -0.24066,-2.3504 -0.23064,-0.446 -0.42063,-1.4419 -0.4222,-2.21311 -0.002,-0.77122 -0.19546,-1.99752 -0.43086,-2.72512 -0.28533,-0.88198 -0.41695,-2.16071 -0.39488,-3.83646 0.0272,-2.06423 -0.0968,-2.92808 -0.69362,-4.83253 -0.69606,-2.22109 -0.75466,-2.31166 -1.38819,-2.1457 -1.55028,0.4061 -3.07339,0.55337 -3.48363,0.33683 -0.46695,-0.24647 -0.68057,-0.82857 -2.20584,-6.01086 -0.75491,-2.56488 -0.89264,-3.33995 -0.64626,-3.63682 0.17221,-0.2075 1.20075,-0.86726 2.28564,-1.46614 1.0849,-0.59887 2.03157,-1.24271 2.10373,-1.43075 0.10405,-0.27114 -0.72202,-2.29831 -1.11659,-2.74011 -0.0481,-0.0539 -0.67685,0.54143 -1.39718,1.32291 -0.72033,0.78148 -1.38953,1.34259 -1.48712,1.24691 -0.0976,-0.0957 0.42672,-0.84108 1.16512,-1.65644 0.7384,-0.81537 1.34254,-1.5601 1.34254,-1.65496 0,-0.60934 -2.49273,-3.79272 -2.74255,-3.50242 -0.31865,0.37029 -2.43237,6.26933 -3.18523,8.88948 -0.86469,3.00934 -1.28417,5.30526 -1.5862,8.68164 l -0.14201,1.5875 1.0347,-2.88202 c 0.56909,-1.58511 1.17679,-3.01386 1.35045,-3.175 0.38868,-0.36065 0.31532,-0.0824 -0.81825,3.10362 -0.45757,1.28605 -0.78131,2.3889 -0.71943,2.45078 0.0619,0.0619 0.62971,-0.6248 1.26184,-1.52596 0.63213,-0.90116 1.19453,-1.50288 1.24977,-1.33715 0.0553,0.16574 -0.53928,1.16942 -1.32117,2.23041 -1.92513,2.61232 -1.86741,2.4676 -1.36877,3.43187 0.35915,0.69452 0.41642,1.34136 0.30222,3.41375 -0.12602,2.28697 -0.0734,2.72101 0.49802,4.11183 0.3514,0.85522 0.75361,2.34446 0.8938,3.30941 0.14019,0.96495 0.39194,2.09605 0.55945,2.51354 0.16751,0.4175 0.40045,1.59252 0.51765,2.61117 0.24948,2.16844 0.69719,4.43674 1.09668,5.55625 0.15578,0.43656 0.35942,1.56766 0.45254,2.51354 0.20122,2.04404 0.70878,3.00091 1.47587,2.78238 0.29104,-0.0829 1.18401,-0.2799 1.98437,-0.43774 z m -1.45224,-4.19192 c -0.25515,-0.41285 4.74025,-3.41957 5.09385,-3.06597 0.19393,0.19393 0.2772,0.13583 -2.14638,1.49753 l -2.07665,1.16676 2.40738,0.0761 c 1.32406,0.0418 2.40737,0.19067 2.40737,0.33073 0,0.33845 -5.47628,0.33351 -5.68557,-0.005 z m -0.45537,-3.96722 c 0.72501,-0.60451 4.25934,-1.99942 5.74407,-2.26703 1.61149,-0.29045 0.94673,0.11564 -1.57821,0.96412 -1.24898,0.4197 -2.73954,1.00219 -3.31235,1.29442 -1.30148,0.66396 -1.64371,0.66737 -0.85351,0.008 z m -1.26739,-6.11736 c 0,-0.14476 1.02936,-0.73651 2.28747,-1.31501 1.2581,-0.5785 2.22654,-1.11273 2.15208,-1.18719 -0.0745,-0.0744 -1.29664,0.11623 -2.71598,0.42374 -3.08258,0.66787 -3.46254,0.50985 -2.45067,-1.01919 0.84308,-1.27398 6.01877,-5.21812 6.01877,-4.58661 0,0.13191 -0.99502,0.96276 -2.21115,1.84634 -2.27385,1.65206 -4.15194,3.52202 -3.6915,3.6755 0.14307,0.0477 1.29618,-0.15487 2.56246,-0.45013 4.23768,-0.9881 4.97411,-0.52369 1.79913,1.13455 -2.44147,1.27514 -3.75061,1.79103 -3.75061,1.478 z m 0.13229,-9.34296 c 1.30969,-1.21862 2.42053,-2.17939 2.46854,-2.13504 0.23294,0.21514 -1.00171,1.61934 -2.56399,2.9161 -2.64576,2.19609 -2.58695,1.71481 0.0954,-0.78106 z m -33.037992,23.36991 c 0.883313,-0.54592 1.134786,-1.11952 0.628099,-1.43267 -0.402338,-0.24866 -2.111235,1.1646 -1.941879,1.60593 0.187796,0.48939 0.256176,0.48037 1.31378,-0.17326 z m 23.740602,0.15482 c 0.1038,-0.27049 -0.17727,-0.56386 -0.88719,-0.92604 -1.24348,-0.63437 -1.22871,-0.63297 -1.41981,-0.13496 -0.10224,0.26642 0.16866,0.56428 0.83159,0.91434 1.20256,0.63502 1.28487,0.6432 1.47541,0.14666 z m -24.426263,-1.50592 c 0.893508,-0.66059 0.94925,-0.97801 0.368853,-2.10038 -0.389898,-0.75398 -0.479103,-0.7902 -1.521355,-0.61779 -0.608943,0.10072 -1.182365,0.22725 -1.27427,0.28116 -0.266239,0.15617 1.187499,3.01594 1.533127,3.01594 0.06083,0 0.462975,-0.26052 0.893645,-0.57893 z m 25.356703,-0.72689 c 0.30896,-0.7182 0.56175,-1.36745 0.56175,-1.44277 0,-0.13231 -1.76532,-0.68652 -2.19632,-0.68952 -0.23993,-0.002 -0.9817,1.65488 -0.97296,2.17284 0.005,0.2791 1.24995,1.09349 1.87992,1.22947 0.0912,0.0197 0.41865,-0.55182 0.72761,-1.27002 z M 24.736126,396.2475 c 1.060767,-0.22314 2.527067,-0.68053 3.258444,-1.01642 0.731376,-0.33589 1.708173,-0.75954 2.17066,-0.94143 0.891832,-0.35076 1.219373,-0.835 0.982438,-1.45244 -0.22705,-0.59169 -0.707276,-0.6545 -1.835813,-0.24011 -1.134528,0.41658 -2.219175,0.73696 -3.360947,0.99276 -0.627684,0.14063 -0.731313,0.29858 -0.754615,1.15016 l -0.02701,0.98715 -0.275847,-0.8599 -0.275847,-0.85989 h -2.053622 c -1.960117,0 -2.046963,-0.0255 -1.907389,-0.5592 0.130829,-0.50029 0.08675,-0.52735 -0.418521,-0.25694 -1.254849,0.67157 -0.927909,2.42281 0.57431,3.07627 1.086263,0.47252 1.594701,0.46992 3.92376,-0.02 z m 32.333788,-0.14266 c 0.67205,-0.52864 0.98213,-1.8901 0.49854,-2.18897 -0.10922,-0.0675 -0.99038,-0.0592 -1.95812,0.0185 -1.68236,0.13504 -1.7662,0.17456 -1.91146,0.90087 -0.0836,0.4178 -0.28343,0.75964 -0.44415,0.75964 -0.18486,0 -0.23025,-0.28214 -0.12356,-0.76791 0.16162,-0.73583 0.12106,-0.77585 -0.97117,-0.95843 -0.6269,-0.10479 -1.94209,-0.48688 -2.92265,-0.8491 -1.92753,-0.71202 -2.58279,-0.66177 -2.58279,0.19807 0,0.428 0.48317,0.78 2.18281,1.59022 3.88694,1.85292 6.91868,2.3306 8.23255,1.29711 z m -24.457476,-1.73627 c 0.71435,-0.90816 0.70295,-2.14692 -0.0269,-2.92383 -0.704092,-0.74947 -1.543676,-0.78203 -2.371965,-0.092 l -0.624624,0.52036 0.661458,0.0129 c 0.957752,0.0186 1.389063,0.37894 1.389063,1.16046 0,0.3777 0.104179,0.62233 0.23151,0.54364 0.444228,-0.27455 0.226498,-1.19925 -0.439081,-1.86483 -0.493813,-0.49381 -0.553515,-0.64757 -0.226477,-0.58328 0.244262,0.048 0.680599,0.40436 0.969636,0.79187 0.73965,0.99165 0.44855,1.95927 -0.738662,2.45532 -1.124833,0.46998 -1.169675,0.67657 -0.146859,0.67657 0.521618,0 0.953621,-0.22765 1.322921,-0.69714 z m 14.666036,0.51418 c 0.10063,-0.10062 -0.2044,-0.30898 -0.67783,-0.46302 -1.13872,-0.37049 -1.53907,-1.416 -0.9099,-2.37623 0.45373,-0.69247 1.56777,-0.93851 1.88985,-0.41737 0.0899,0.14552 0.29401,0.26458 0.45349,0.26458 0.15949,0 0.0745,-0.23813 -0.18891,-0.52917 -0.26339,-0.29104 -0.7635,-0.52916 -1.11137,-0.52916 -0.90599,0 -1.93134,1.12373 -1.93134,2.11666 0,1.3097 1.74063,2.6691 2.47601,1.93371 z m -1.06822,-1.63772 c -0.0792,-0.30306 0.10519,-0.71703 0.47154,-1.05833 0.33094,-0.30832 0.49933,-0.56057 0.37421,-0.56057 -0.73913,0 -1.50346,1.45563 -1.01882,1.94027 0.27777,0.27777 0.31276,0.2128 0.17307,-0.32137 z m 8.3818,-0.28074 c 0,-0.6806 -2.32218,-1.2028 -2.42094,-0.54441 -0.12283,0.81887 -0.0168,0.93636 0.96573,1.07019 1.26776,0.17268 1.45521,0.10495 1.45521,-0.52578 z m 1.19062,0.11704 c 0,-0.26678 -0.14883,-0.53468 -0.33073,-0.59531 -0.20946,-0.0698 -0.33073,0.14846 -0.33073,0.59531 0,0.44686 0.12127,0.66514 0.33073,0.59532 0.1819,-0.0606 0.33073,-0.32853 0.33073,-0.59532 z M 22.265143,392.8856 c -0.106868,-0.74906 -1.010589,-0.98571 -1.010589,-0.26464 0,0.59927 0.217869,0.85725 0.723958,0.85725 0.233202,0 0.339751,-0.22029 0.286631,-0.59261 z m 2.80423,0.43201 c 0.508639,-0.19518 0.53436,-0.63817 0.07364,-1.26824 -0.303391,-0.41491 -0.481093,-0.43497 -1.477318,-0.16671 -0.840292,0.22627 -1.09261,0.40874 -0.978041,0.7073 0.08492,0.2213 0.154401,0.51169 0.154401,0.6453 0,0.27207 1.580624,0.33051 2.227319,0.0823 z m 31.987471,-1.73109 c 0.78449,-0.41293 0.96598,-0.73829 0.97074,-1.74023 0.003,-0.62423 -0.17603,-0.97179 -0.66567,-1.29261 -0.75933,-0.49754 -1.29816,-0.2413 -0.58664,0.27898 0.83515,0.61067 0.48916,0.75525 -1.38947,0.58065 -1.67629,-0.15579 -1.85209,-0.12653 -1.85209,0.30831 0,0.26425 -0.17481,0.71156 -0.38846,0.99404 -0.21365,0.28247 -0.39225,0.59461 -0.39687,0.69363 -0.0219,0.46799 3.4822,0.61213 4.30846,0.17723 z m -32.396478,-0.49799 c 3.405623,-0.94374 6.648354,-2.95496 6.648354,-4.12345 0,-0.70035 -0.539634,-1.04933 -1.219288,-0.78853 -0.388302,0.14901 -0.386452,0.22295 0.02114,0.84502 0.610026,0.93102 0.333223,1.09744 -0.359844,0.21635 l -0.559985,-0.71191 -1.652991,0.87436 c -0.909145,0.48089 -1.712522,0.96157 -1.785282,1.06817 -0.07276,0.1066 -0.429948,0.23565 -0.79375,0.28677 -0.678721,0.0954 -0.764204,0.3979 -0.418696,1.48175 0.109731,0.34423 0.07931,0.59532 -0.07212,0.59532 -0.144042,0 -0.399409,-0.41668 -0.567482,-0.92595 -0.273359,-0.82828 -0.380167,-0.90737 -1.012707,-0.74992 -0.388915,0.0968 -0.836798,0.35159 -0.995295,0.56619 -0.25049,0.33914 -0.310284,0.33256 -0.457211,-0.0503 -0.122736,-0.31984 -0.351797,-0.39462 -0.836302,-0.27302 -0.77452,0.19439 -0.869398,-0.075 -0.204248,-0.57991 0.435645,-0.3307 0.436006,-0.35198 0.0061,-0.3599 -0.728011,-0.0134 -1.326537,1.1126 -1.019985,1.91889 0.5239,1.37796 2.103074,1.59036 5.279593,0.7101 z m 28.026688,-0.30907 c 0.17462,-0.17463 0.3175,-0.64782 0.3175,-1.05154 0,-0.55711 -0.20265,-0.83883 -0.84072,-1.16879 -0.7739,-0.4002 -0.86559,-0.40074 -1.15365,-0.007 -0.44625,0.61029 -0.68685,0.52877 -0.51071,-0.17304 0.12302,-0.49015 -0.0727,-0.75856 -1.06103,-1.45521 -1.37217,-0.9672 -1.85241,-1.05333 -2.21915,-0.39802 -0.49114,0.87763 0.88657,2.5294 3.13942,3.7639 1.6279,0.89204 1.87404,0.94379 2.32834,0.4895 z m -32.394505,-2.8575 c 0.45802,0 0.703518,-1.71203 0.678732,-4.73328 l -0.01869,-2.27818 -0.54086,1.19063 c -0.297473,0.65484 -0.632376,2.02406 -0.744229,3.0427 -0.111853,1.01865 -0.336305,2.18726 -0.498784,2.59692 -0.433339,1.09257 -0.362804,1.30693 0.233752,0.71038 0.291041,-0.29105 0.691577,-0.52917 0.890079,-0.52917 z m 12.218819,-0.12027 c 1.32139,-1.32138 0.38966,-3.84848 -1.418916,-3.84848 -0.976645,0 -2.165881,0.92015 -2.162047,1.67285 0.0026,0.51874 0.07042,0.49048 0.680634,-0.28379 0.750992,-0.95289 1.288566,-1.06398 2.167977,-0.44802 0.784402,0.54942 0.817832,2.26875 0.05887,3.02771 -0.291042,0.29104 -0.404692,0.52917 -0.252557,0.52917 0.152136,0 0.568858,-0.29225 0.926039,-0.64944 z m 14.046576,0.10107 c -0.88174,-0.69358 -0.93589,-1.94152 -0.12186,-2.80802 0.75839,-0.80726 1.47361,-0.77319 2.41888,0.11524 l 0.77416,0.7276 -0.41917,-0.82783 c -0.46029,-0.90904 -0.8935,-1.15654 -2.02436,-1.15654 -0.93874,0 -2.11854,1.31753 -2.11854,2.36587 0,0.93086 0.9253,2.13205 1.64238,2.13205 0.50241,0 0.4904,-0.0435 -0.15149,-0.54837 z m 11.09632,-0.57611 c -0.096,-0.32743 -0.28461,-1.31571 -0.41918,-2.19619 -0.13458,-0.88048 -0.45419,-2.0711 -0.71025,-2.64583 l -0.46556,-1.04496 -0.0923,0.90477 c -0.0507,0.49762 0.0358,1.41355 0.19242,2.03539 0.15659,0.62184 0.2847,1.60495 0.2847,2.18468 0,1.01771 0.15219,1.19248 1.15534,1.32676 0.12611,0.0169 0.15077,-0.2372 0.0548,-0.56462 z m -10.65868,-1.47774 c 0.16364,-0.19912 0.61157,-0.30611 1.02656,-0.24521 0.58711,0.0862 0.67739,0.0371 0.44568,-0.24205 -0.15981,-0.19256 -0.57059,-0.35011 -0.91284,-0.35011 -0.73852,0 -1.58312,1.37967 -1.2699,2.0744 0.16073,0.35652 0.21889,0.3147 0.30908,-0.22231 0.0611,-0.36381 0.24174,-0.82043 0.40142,-1.01472 z m -14.987286,0.14636 c -0.218275,-0.86968 -1.281348,-1.33356 -1.929972,-0.84216 -0.458946,0.3477 -0.445301,0.37129 0.219308,0.37918 0.723204,0.009 1.540253,0.60788 1.540253,1.12975 0,0.15938 0.07383,0.21595 0.164071,0.12571 0.0902,-0.0902 0.0931,-0.44685 0.006,-0.79248 z m 17.499306,-5.10083 c 1.15845,-0.81141 1.38028,-1.69846 1.38028,-5.51956 v -3.57751 l -3.23689,0.034 c -3.14758,0.0331 -3.2567,0.0539 -3.9552,0.75236 -1.26461,1.26461 -1.30281,2.8986 -0.096,4.10543 1.99445,1.99446 5.27494,0.19445 4.48228,-2.45942 -0.21241,-0.71114 -0.21939,-0.70531 -0.30882,0.25762 -0.1719,1.85083 -2.12375,2.66401 -3.37971,1.40805 -0.78836,-0.78836 -0.82921,-1.69648 -0.11704,-2.60186 1.08962,-1.38523 3.54258,-1.05437 4.2148,0.56851 0.6716,1.62138 -0.15602,3.31962 -1.94888,3.999 -1.54793,0.58657 -3.54788,-0.505 -4.12409,-2.25091 -0.30014,-0.90945 -0.31632,-0.91739 -1.86974,-0.91739 h -1.56698 v -5.42396 -5.42395 h -3.85681 -3.856809 l -0.773397,0.77339 -0.773398,0.7734 -0.04754,6.03962 c -0.06719,8.53539 -0.08478,8.42214 1.453493,9.36009 0.788305,0.48066 1.392909,0.51408 9.316951,0.51501 7.25176,8.4e-4 8.55897,-0.0586 9.06349,-0.41195 z m -12.55998,-1.37258 c 2.30103,-0.0441 5.99197,-0.044 8.20208,2e-4 2.21011,0.0442 0.32745,0.0803 -4.1837,0.0802 -4.51114,-1.1e-4 -6.319406,-0.0363 -4.01838,-0.0804 z m -4.712866,-4.76881 c -0.291038,-0.0668 -0.616636,-0.25653 -0.723549,-0.42159 -0.299102,-0.4618 -0.238214,-6.48587 0.0714,-7.0644 0.163164,-0.30487 0.552485,-0.51177 0.963015,-0.51177 0.37902,0 0.84149,-0.20836 1.0277,-0.46302 0.4402,-0.60201 2.66327,-0.6505 3.03266,-0.0661 0.29309,0.46364 0.34335,7.66683 0.0565,8.09607 -0.20713,0.30995 -3.54114,0.63437 -4.42772,0.43085 z m 1.19063,-3.91429 v -3.58945 l -0.72761,0.0837 -0.727599,0.0837 -0.07498,3.1596 c -0.04124,1.73778 -0.01521,3.31535 0.05784,3.50573 0.07305,0.19037 0.434219,0.34613 0.802589,0.34613 h 0.66976 z m 2.851296,-0.43864 0.0732,-3.8958 -0.64756,-0.16253 c -1.587216,-0.39836 -1.608776,-0.34638 -1.688576,4.07041 l -0.0731,4.04712 1.131446,-0.0817 1.13145,-0.0817 z m -13.569873,8.06298 c 1.150246,-1.46387 2.802179,-4.35531 3.154446,-5.52135 0.147699,-0.4889 0.03633,-0.58168 -0.872652,-0.72703 -0.573077,-0.0916 -1.219033,-0.23457 -1.435458,-0.31762 -0.278809,-0.10699 -0.490559,0.14309 -0.726504,0.85801 -0.183152,0.55496 -0.607057,1.52444 -0.942012,2.1544 -0.384048,0.72229 -0.559569,1.40692 -0.475166,1.8534 0.07361,0.3894 0.02472,1.27355 -0.108666,1.96478 -0.133381,0.69122 -0.14056,1.25677 -0.01595,1.25677 0.124606,0 0.764491,-0.68461 1.421967,-1.52136 z m 33.267453,-0.92604 c 0.0898,-1.39694 -0.009,-1.89946 -0.63796,-3.2372 -0.40934,-0.87096 -0.74425,-1.75035 -0.74425,-1.9542 0,-0.28906 -0.27199,-0.33335 -1.23587,-0.20123 -0.67972,0.0932 -1.28411,0.21764 -1.34309,0.27662 -0.38679,0.38679 3.08091,6.76966 3.67783,6.76966 0.0974,0 0.22487,-0.74414 0.28334,-1.65365 z m -9.45338,-1.68973 c 0.24133,-0.0926 0.55189,-0.46586 0.69013,-0.82946 0.55231,-1.45269 -1.26883,-2.54714 -2.45386,-1.4747 -0.63045,0.57055 -0.61381,1.28425 0.0453,1.94337 0.55304,0.55304 0.98247,0.6432 1.71842,0.36079 z m -4.0394,-2.45046 c 0.67577,-1.72035 1.41247,-2.01137 5.09162,-2.01137 h 3.18249 l 0.0805,-2.24896 c 0.10214,-2.8533 -0.0898,-3.86978 -0.87976,-4.65977 -0.6219,-0.6219 -0.7116,-0.63189 -5.67101,-0.63189 h -5.03911 v 5.11527 c 0,2.81341 0.0794,5.19466 0.17639,5.29167 0.097,0.097 0.7338,0.17639 1.41507,0.17639 1.19406,0 1.25329,-0.0372 1.64381,-1.03134 z m 0.3924,-4.42502 c -0.10345,-0.10345 -0.18808,-0.82309 -0.18808,-1.5992 v -1.41111 h 3.175 c 2.19643,0 3.175,0.0928 3.175,0.30101 0,0.20921 -0.44384,0.24885 -1.45521,0.12998 -1.93631,-0.22757 -4.36563,0.0634 -4.36563,0.52282 0,0.2668 0.71902,0.37217 2.97656,0.43618 l 2.97657,0.0844 -2.97657,0.0566 c -2.78132,0.0528 -2.97656,0.0913 -2.97656,0.58572 0,0.49727 0.17639,0.52917 2.92603,0.52917 1.62677,0 2.86187,0.10383 2.78152,0.23383 -0.17286,0.27969 -5.77851,0.40076 -6.04863,0.13064 z m -19.792967,-1.15822 c 0.04873,-3.85562 -1.828724,-15.9832 -2.592585,-16.74706 -0.156272,-0.15627 -0.793455,0.0617 -1.7053,0.58343 l -1.455803,0.83293 0.882217,1.91066 c 1.234492,2.6736 2.92132,7.83999 3.431391,10.50962 0.236333,1.23693 0.508496,3.43958 0.604806,4.89479 l 0.17511,2.64583 0.317543,-1.32291 c 0.174649,-0.72761 0.328828,-2.21589 0.342621,-3.30729 z m 41.036137,4.26659 c 0,-0.12722 -0.1786,-0.7375 -0.39688,-1.35618 -0.44199,-1.25272 -0.53344,-2.36839 -0.16158,-1.97114 0.12941,0.13824 0.43039,0.93596 0.66884,1.7727 0.24705,0.86688 0.58413,1.52136 0.78357,1.52136 0.45508,0 2.08747,-0.54671 2.36097,-0.79072 0.11672,-0.10414 0.0655,-0.98538 -0.11373,-1.95832 -0.26307,-1.4277 -0.40609,-1.73789 -0.74138,-1.60784 -0.22849,0.0886 -0.97887,0.22853 -1.66751,0.31092 -1.4628,0.17502 -1.73382,0.004 -3.01479,-1.89771 -0.49088,-0.72892 -0.89251,-1.20577 -0.89251,-1.05967 0,0.56777 1.86516,6.56801 2.14735,6.90802 0.33277,0.40097 1.02765,0.48791 1.02765,0.12858 z M 12.522498,369.798 c 0.188871,-0.7276 0.444912,-1.43603 0.568979,-1.57427 0.363063,-0.40455 0.263769,0.73803 -0.171298,1.97115 -0.523635,1.48414 -0.504207,1.6397 0.192294,1.53975 0.522195,-0.0749 0.700143,-0.51314 1.565389,-3.85486 0.53692,-2.07367 0.929058,-3.77031 0.871416,-3.77031 -0.05764,0 -0.358784,0.50601 -0.669205,1.12448 -1.118996,2.22941 -1.887957,2.64026 -3.875019,2.07038 -0.828125,-0.2375 -0.860772,-0.21604 -1.1065791,0.7276 -0.139303,0.53478 -0.332002,1.41174 -0.428219,1.94879 l -0.174941,0.97645 1.2832661,0.37822 c 1.454733,0.42875 1.428075,0.44984 1.943917,-1.53738 z m 13.819174,1.16612 c 0.132281,-0.90129 0.106282,-0.91893 -1.713681,-1.16258 l -1.25677,-0.16825 v 0.81848 c 0,0.91073 0.575001,1.28462 2.02049,1.31383 0.730051,0.0148 0.844311,-0.0816 0.949961,-0.80148 z m 2.850382,-0.76924 c 0,-1.50263 -0.03421,-1.5875 -0.639819,-1.5875 -0.3519,0 -0.811032,-0.0657 -1.020294,-0.14601 -0.29256,-0.11226 -0.42161,0.204 -0.558497,1.3687 -0.200433,1.70537 -0.03563,1.94168 1.358714,1.94825 l 0.859896,0.004 z m 24.91174,1.16534 c 0.32064,-0.19817 0.27634,-1.36615 -0.0597,-1.57383 -0.15585,-0.0963 -0.81069,-0.0961 -1.4552,6e-4 -1.2065,0.18092 -1.41725,0.51884 -1.00066,1.60447 0.13755,0.35844 0.37956,0.41279 1.23154,0.27655 0.58319,-0.0932 1.161,-0.23176 1.28402,-0.30779 z m 2.1721,-8.1768 c 0.74971,-2.92401 1.53313,-5.28944 2.79167,-8.42915 0.59037,-1.47279 0.75419,-2.17463 0.56173,-2.40653 -0.36187,-0.43602 -2.3567,-1.32577 -2.54662,-1.13585 -0.20372,0.20372 -1.30937,5.78289 -1.8219,9.1934 -0.5004,3.32976 -0.83175,9.79941 -0.53717,10.48824 0.14014,0.32771 0.32116,-0.43561 0.54214,-2.28615 0.18247,-1.52797 0.63703,-3.96875 1.01015,-5.42396 z m -29.729673,4.27928 c 0,-3.04792 -1.037352,-12.1517 -1.429318,-12.54367 -0.03751,-0.0375 -0.697574,0.11872 -1.466821,0.34716 l -1.398631,0.41535 0.180722,1.10511 c 0.438315,2.68026 0.921041,6.88283 1.090413,9.49301 0.201134,3.09967 0.157177,3.0328 2.031447,3.09077 l 0.992188,0.0307 z m 26.986533,1.67384 c 0.401,0 0.48723,-0.39326 0.65263,-2.97656 0.10483,-1.63711 0.41725,-4.52438 0.69428,-6.41615 0.27704,-1.89177 0.50425,-3.56568 0.50492,-3.7198 0.002,-0.42862 -2.64913,-1.21426 -2.78364,-0.82496 -0.33063,0.95691 -0.97153,6.93493 -1.10864,10.34088 l -0.15878,3.94403 0.86859,-0.17372 c 0.47772,-0.0955 1.07651,-0.17372 1.33064,-0.17372 z m -24.3407,-2.2621 c 0,-2.19447 1.248162,-3.55873 3.255874,-3.55873 0.78943,0 0.93143,-0.1064 1.14752,-0.8599 0.23561,-0.82149 0.30526,-0.85989 1.559626,-0.85989 1.29297,0 1.3143,0.0134 1.39712,0.87595 0.0508,0.52935 0.20787,0.83471 0.39688,0.77171 0.22198,-0.074 0.31277,-1.24891 0.31277,-4.04769 v -3.94343 l -1.25487,-0.1795 c -3.684476,-0.52705 -7.698114,-2.48822 -10.00161,-4.88707 -0.902797,-0.94017 -1.69465,-1.6562 -1.759673,-1.59118 -0.06502,0.065 0.121715,0.9333 0.414975,1.92951 1.053861,3.57998 1.931457,9.23549 2.303112,14.84201 l 0.179777,2.71198 h 1.024249 1.02425 z m 36.80374,0.37163 c 1.57271,-0.5298 1.5865,-0.58213 0.77753,-2.9526 -0.9165,-2.68558 -1.34714,-3.62359 -1.66357,-3.62359 -0.26703,0 -3.20988,1.6086 -3.98721,2.17946 -0.4538,0.33327 -0.41828,0.45726 0.62918,2.19573 0.61058,1.01338 1.22855,1.99134 1.37326,2.17324 0.32873,0.41322 1.68758,0.42636 2.87081,0.0278 z m -51.865743,-1.74755 c 0.468508,-0.83674 1.069202,-1.88716 1.334875,-2.33426 l 0.483043,-0.81291 -2.125897,-1.13273 c -1.169244,-0.623 -2.166612,-1.09063 -2.216374,-1.03917 -0.28897,0.29879 -1.9884371,5.67644 -1.8817531,5.95446 0.151015,0.39354 1.5192411,0.82819 2.7137951,0.8621 0.756593,0.0215 0.925497,-0.12798 1.692311,-1.49749 z m 37.130073,-3.9026 c 0.17047,-2.29314 1.07157,-7.89423 1.77574,-11.03766 0.18637,-0.83196 0.2431,-1.60586 0.12605,-1.71979 -0.11704,-0.11392 -0.52262,0.20958 -0.90129,0.71891 -2.2318,3.00185 -5.13275,4.78196 -8.92884,5.47899 l -2.23348,0.41011 v 3.93461 3.93462 h 4.08628 c 3.94068,0 4.11274,0.0228 4.82865,0.63976 0.93911,0.80931 1.02315,0.65028 1.24689,-2.35955 z m -7.3837,-3.50437 c 0.14552,-0.14687 0.8781,-0.466 1.62796,-0.70917 0.74985,-0.24317 2.04362,-0.91865 2.87504,-1.50106 1.60105,-1.12154 2.368,-1.19234 1.04291,-0.0963 -1.05492,0.87259 -3.74319,2.1959 -4.88445,2.40438 -0.62233,0.11369 -0.83927,0.0816 -0.66146,-0.0979 z m -7.80521,4.54673 c 0,-0.62102 -0.0826,-0.67059 -0.99219,-0.59531 -0.796976,0.066 -1.008816,0.19924 -1.076726,0.67743 -0.0758,0.53369 0.0269,0.59531 0.992186,0.59531 0.9789,0 1.07673,-0.0616 1.07673,-0.67743 z m 4.49792,-3.29132 v -3.96875 h -1.32292 -1.32291 v 3.96875 3.96875 h 1.32291 1.32292 z m -16.57986,-4.6742 c 0.944561,-0.20587 1.077409,-0.55685 0.717161,-1.89471 l -0.287617,-1.06813 -1.383695,0.47737 c -1.462723,0.50464 -1.516181,0.61837 -1.108697,2.35875 0.115798,0.49457 0.266146,0.58872 0.729189,0.45665 0.320823,-0.0915 0.920969,-0.23998 1.333659,-0.32993 z m 31.76509,0.0223 c 0.0883,-0.23018 0.1606,-0.77204 0.1606,-1.20412 0,-0.64637 -0.16263,-0.85357 -0.91754,-1.16899 -1.61361,-0.67421 -1.72393,-0.60364 -2.11564,1.3534 -0.15195,0.75917 -0.0985,0.82857 0.84014,1.09105 1.465,0.40966 1.85309,0.39604 2.03244,-0.0713 z m 6.9241,-12.65895 c -0.89575,-3.07816 -3.29256,-4.9086 -6.43277,-4.91272 -1.0288,-10e-4 -1.12448,0.0558 -1.12448,0.672 0,0.65357 -1.03878,1.97235 -1.55359,1.97235 -0.1401,0 -0.46269,0.54455 -0.71686,1.2101 -0.25418,0.66555 -0.68617,1.4949 -0.95998,1.84299 -0.46787,0.5948 -0.47147,0.67316 -0.0597,1.30152 0.26566,0.40545 0.37556,0.91781 0.2792,1.30173 -0.10076,0.40146 -0.0146,0.75286 0.23541,0.96037 0.21688,0.17999 0.39432,0.58652 0.39432,0.9034 0,0.75959 0.48182,1.21114 1.2923,1.21114 0.82409,0 2.93732,1.00538 3.12137,1.48501 0.0757,0.19735 0.81028,0.73565 1.63233,1.19621 1.77357,0.99368 2.77856,1.87908 3.56368,3.13962 l 0.57678,0.92604 0.0713,-5.93372 c 0.0555,-4.61794 -0.0153,-6.23138 -0.31929,-7.27604 z m -46.717202,10.76453 c 0.219175,-0.18071 1.171189,-0.76804 2.115585,-1.30519 0.944397,-0.53716 2.07708,-1.35835 2.517074,-1.82488 0.474939,-0.50358 1.282326,-0.97766 1.987082,-1.16676 1.711546,-0.45925 1.971071,-0.63784 2.064572,-1.42067 0.04605,-0.38556 0.298238,-0.81582 0.560414,-0.95613 0.326838,-0.17492 0.437439,-0.4604 0.351843,-0.90817 -0.06866,-0.35918 0.04519,-0.89581 0.252996,-1.1925 0.339158,-0.48421 0.293058,-0.71402 -0.450334,-2.24486 -0.455494,-0.93799 -1.208482,-2.06069 -1.673306,-2.4949 -0.531131,-0.49615 -0.845134,-1.04495 -0.845134,-1.47707 0,-0.67772 -0.02757,-0.68752 -1.918229,-0.68179 -2.23131,0.007 -3.596513,0.52255 -4.940585,1.86663 -1.756785,1.75678 -1.860145,2.28054 -1.866625,9.4588 l -0.0058,6.43644 0.725979,-0.88019 c 0.399289,-0.48411 0.905304,-1.02805 1.124479,-1.20876 z m 27.826022,1.66552 c 3.23745,-0.68617 5.82924,-2.30142 7.91164,-4.93066 1.18337,-1.49413 0.78462,-1.58516 -0.55892,-0.12759 -2.64653,2.87114 -6.23041,4.15881 -11.6292,4.17831 -3.83789,0.0139 -5.941996,-0.40487 -8.898491,-1.77085 -1.920698,-0.88742 -5.389009,-3.37703 -5.389009,-3.86832 0,-0.133 -0.123252,-0.24181 -0.273892,-0.24181 -0.47994,0 0.191555,0.94329 1.79451,2.52086 3.730667,3.67157 11.088742,5.50212 17.043362,4.24006 z m 0.88289,-1.86323 c 2.97041,-0.79045 5.08252,-2.11479 6.6741,-4.1848 1.47137,-1.91366 0.98438,-2.41734 -0.78855,-0.8156 -1.29992,1.17439 -3.81826,2.3777 -6.35542,3.03674 -2.42865,0.63085 -7.32416,0.683 -9.594846,0.10221 -1.64722,-0.42132 -6.270731,-2.59084 -7.95004,-3.73045 -0.620073,-0.42079 -1.067611,-0.56987 -1.228316,-0.40917 -0.370111,0.37011 0.12647,1.14792 1.510886,2.36653 2.127885,1.87304 5.53849,3.38932 9.088476,4.04055 1.77106,0.32489 6.7815,0.0895 8.64371,-0.40601 z m -21.335445,-1.09176 c 0.845118,-0.34589 0.880432,-0.41369 0.707015,-1.35737 -0.245509,-1.33599 -0.471945,-1.51116 -1.493193,-1.15515 -1.498908,0.52252 -1.799673,0.95877 -1.493266,2.16592 0.290712,1.14531 0.317835,1.14944 2.279444,0.3466 z m 33.235885,-0.2961 c 0.19969,-1.06442 -0.0703,-1.38858 -1.75258,-2.10458 -0.71541,-0.30448 -0.74791,-0.28321 -1.01028,0.66145 -0.39783,1.4324 -0.37554,1.48336 0.85044,1.94457 1.62307,0.6106 1.70798,0.58834 1.91242,-0.50144 z m -13.80166,-0.85467 c 0.1185,-0.11112 0.0207,-0.39679 -0.21734,-0.63482 -0.61512,-0.61513 -5.98274,-0.63556 -6.4897,-0.0247 -0.45647,0.55001 -0.09,0.85404 1.19993,0.9956 1.40126,0.15377 5.23418,-0.0802 5.50711,-0.33609 z m -6.43315,-0.24517 c 0,-0.31935 1.18049,-0.5959 1.69724,-0.3976 0.22901,0.0879 0.35051,0.26637 0.27,0.39664 -0.19054,0.3083 -1.96724,0.30916 -1.96724,9.6e-4 z m -0.79375,-0.42556 c 0.13831,-0.3638 0.40326,-0.67653 0.58876,-0.69496 0.1855,-0.0184 1.63628,-0.0701 3.22395,-0.11488 l 2.88667,-0.0814 0.72482,0.77592 0.72483,0.77593 1.68017,-0.526 c 0.92409,-0.2893 2.33164,-0.9019 3.12789,-1.36135 1.42599,-0.82282 1.43889,-0.84121 0.85989,-1.22565 -0.3389,-0.22503 -0.58782,-0.66243 -0.58782,-1.03295 v -0.64265 l -0.91426,0.69734 c -1.65967,1.2659 -4.42445,2.03376 -7.84612,2.17911 -3.80044,0.16144 -6.322656,-0.33777 -9.181757,-1.81729 -2.258366,-1.16865 -2.16619,-1.13791 -2.16619,-0.72233 0,0.17044 -0.187684,0.51728 -0.417075,0.77075 -0.387071,0.42771 -0.325581,0.51449 0.854758,1.20621 1.373532,0.80494 5.302648,2.46393 5.852714,2.47119 0.1855,0.002 0.45045,-0.29321 0.58877,-0.65701 z m 9.69795,-2.62403 c 1.13192,-0.43398 2.45976,-1.20968 3.30336,-1.92976 0.77584,-0.66225 1.68516,-1.38397 2.02071,-1.60383 0.70856,-0.46427 2.05917,-2.64625 1.79902,-2.90641 -0.0971,-0.0971 -0.81546,0.54064 -1.59631,1.41724 -2.58329,2.90006 -6.93606,4.2812 -12.57294,3.98942 -5.030486,-0.26039 -7.966261,-1.31999 -10.697797,-3.86113 -0.951626,-0.88529 -1.859725,-1.60963 -2.017999,-1.60963 -0.158274,0 0.03624,0.59532 0.432251,1.32292 0.396012,0.72761 0.816187,1.32292 0.933723,1.32292 0.117536,0 0.836276,0.55293 1.597201,1.22874 1.497491,1.32999 4.036185,2.63949 6.161985,3.17847 0.864956,0.2193 2.641226,0.31012 5.039886,0.25769 3.2883,-0.0719 3.91666,-0.16243 5.59691,-0.80664 z m 5.82926,-0.72938 c 0.61598,-0.57868 0.74886,-1.14242 0.45177,-1.91662 -0.21736,-0.56642 -0.6895,-0.52618 -1.52351,0.12986 -0.45237,0.35583 -0.69714,0.80484 -0.69714,1.27882 0,1.25012 0.74971,1.4654 1.76888,0.50794 z m -22.966505,-0.27474 c 0.306905,-0.82965 0.05818,-1.53017 -0.659378,-1.85711 -1.196711,-0.54526 -1.933391,0.91454 -0.988445,1.9587 0.595354,0.65786 1.384891,0.60918 1.647823,-0.10159 z m -1.447553,-0.30593 c -0.198585,-0.5175 0.07198,-0.96071 0.58649,-0.96071 0.259759,0 0.370066,0.20113 0.315114,0.57459 -0.102665,0.69771 -0.686148,0.94759 -0.901604,0.38612 z m 17.221218,-0.565 c 1.01865,-0.21387 2.72146,-0.81667 3.78404,-1.33956 3.22936,-1.58916 4.13424,-3.47181 4.14666,-8.62738 0.008,-3.42094 -0.29836,-3.99706 -2.62502,-4.93268 -5.78701,-2.32713 -12.94245,-2.47676 -18.995638,-0.39723 -2.815584,0.96727 -3.576251,1.66702 -3.926443,3.61199 -0.345593,1.91942 0.04671,5.51205 0.783864,7.17852 0.856364,1.93595 3.761002,3.70303 7.353881,4.47384 2.363176,0.50699 7.140656,0.52337 9.478656,0.0325 z m -17.841103,-6.13463 c -0.469237,-1.68979 -0.357718,-6.14893 0.180582,-7.22064 0.821614,-1.63576 4.710402,-3.10765 9.855311,-3.7302 6.19583,-0.74972 14.52199,1.11314 15.78296,3.53122 0.49979,0.9584 0.62264,3.97884 0.27424,6.74239 -0.22363,1.77388 0.12217,2.27544 0.63845,0.92604 0.44244,-1.1564 0.62478,-6.16928 0.26414,-7.26202 -0.37393,-1.13302 -2.88557,-3.60974 -4.49144,-4.42899 -3.83643,-1.9572 -11.6499,-2.38655 -16.304806,-0.89594 -3.215371,1.02963 -6.557818,3.37854 -7.276485,5.11356 -0.235616,0.56882 -0.297195,1.78901 -0.207627,4.11408 0.116571,3.02599 0.180628,3.36214 0.757773,3.97648 0.74533,0.79337 0.911737,0.51987 0.526902,-0.86598 z M 24.3176,335.53568 c -0.01119,-2.03662 -0.102883,-3.70349 -0.203772,-3.70417 -0.541414,-0.004 -1.006009,1.2943 -0.991419,2.76963 0.02788,2.81869 0.458115,4.4866 1.195191,4.63344 0.01119,0.002 0.01119,-1.66228 0,-3.6989 z m 29.810764,3.23993 c 0.27778,-0.31213 0.47381,-1.30325 0.60153,-3.0413 0.15907,-2.16472 0.11979,-2.68459 -0.24488,-3.24114 -0.6729,-1.02698 -0.92546,-0.79164 -0.77931,0.72619 0.0736,0.76398 0.0294,2.43086 -0.0981,3.70416 -0.1275,1.27331 -0.15521,2.31511 -0.0616,2.31511 0.0936,0 0.35565,-0.20836 0.5823,-0.46302 z M 28.266012,327.94322 c 3.101286,-1.9682 8.299292,-2.92525 13.388882,-2.46514 4.88112,0.44126 7.49959,1.48321 10.24442,4.07649 1.3659,1.29049 1.40275,1.30694 1.22409,0.54636 -0.82532,-3.51338 -2.14392,-5.87824 -4.45344,-7.98708 -2.61683,-2.38944 -5.99457,-3.6321 -9.82062,-3.61295 -6.555596,0.0328 -12.291857,4.48477 -13.731838,10.65741 l -0.383611,1.6444 1.1046,-1.00996 c 0.60753,-0.55548 1.699913,-1.38777 2.427517,-1.84953 z"
       id="path1" /></g></svg>
